<svg width="37" height="35" viewBox="0 0 37 35" fill="none" xmlns="http://www.w3.org/2000/svg">
<g id="pin">
<g id="vector">
<path fill-rule="evenodd" clip-rule="evenodd" d="M18.3511 13.1259C16.7022 13.1259 15.3655 14.4318 15.3655 16.0426C15.3655 17.6534 16.7022 18.9593 18.3511 18.9593C20 18.9593 21.3367 17.6534 21.3367 16.0426C21.3367 14.4318 20 13.1259 18.3511 13.1259ZM12.38 16.0426C12.38 12.8209 15.0533 10.2093 18.3511 10.2093C21.6489 10.2093 24.3223 12.8209 24.3223 16.0426C24.3223 19.2643 21.6489 21.8759 18.3511 21.8759C15.0533 21.8759 12.38 19.2643 12.38 16.0426Z" fill="#FF552B"/>
<path fill-rule="evenodd" clip-rule="evenodd" d="M18.3512 5.83464C16.2845 5.83464 14.2642 6.43333 12.5458 7.55501C10.8274 8.6767 9.48801 10.271 8.69709 12.1363C7.90617 14.0016 7.6992 16.0541 8.10236 18.0343C8.50551 20.0145 9.50068 21.8335 10.962 23.2612L17.2969 29.4483C17.5768 29.7215 17.9563 29.8749 18.3519 29.8749C18.7476 29.8749 19.127 29.7215 19.407 29.4483L25.7403 23.2612C27.2017 21.8335 28.1968 20.0145 28.6 18.0343C29.0031 16.0541 28.7962 14.0016 28.0053 12.1363C27.2143 10.271 25.875 8.6767 24.1566 7.55501C22.4382 6.43333 20.4179 5.83464 18.3512 5.83464ZM27.8515 25.3235C29.7304 23.4879 31.0099 21.1493 31.5282 18.6033C32.0466 16.0573 31.7805 13.4183 30.7636 11.0201C29.7467 8.62185 28.0247 6.57205 25.8153 5.12988C23.6059 3.68772 21.0084 2.91797 18.3512 2.91797C15.694 2.91797 13.0965 3.68772 10.8871 5.12988C8.67769 6.57205 6.95567 8.62185 5.93878 11.0201C4.92188 13.4183 4.65578 16.0573 5.17412 18.6033C5.69247 21.1493 6.97197 23.4879 8.85084 25.3235L15.1864 31.5114C16.0261 32.3309 17.165 32.7916 18.3519 32.7916C19.5389 32.7916 20.6773 32.3313 21.517 31.5118L27.8515 25.3235Z" fill="#FF552B"/>
</g>
</g>
</svg>
