<svg width="22" height="20" viewBox="0 0 22 20" fill="none" xmlns="http://www.w3.org/2000/svg">
<path fill-rule="evenodd" clip-rule="evenodd" d="M8.33177 3.33464C6.89226 3.33464 5.72531 4.45392 5.72531 5.83463C5.72531 7.21535 6.89226 8.33463 8.33177 8.33463C9.77129 8.33463 10.9382 7.21535 10.9382 5.83463C10.9382 4.45392 9.77129 3.33464 8.33177 3.33464ZM3.98766 5.83463C3.98766 3.53345 5.93259 1.66797 8.33177 1.66797C10.731 1.66797 12.6759 3.53345 12.6759 5.83463C12.6759 8.13582 10.731 10.0013 8.33177 10.0013C5.93259 10.0013 3.98766 8.13582 3.98766 5.83463Z" fill="#454056"/>
<path fill-rule="evenodd" clip-rule="evenodd" d="M6.59411 13.3346C5.90283 13.3346 5.23987 13.598 4.75106 14.0669C4.26225 14.5357 3.98764 15.1716 3.98764 15.8346V17.5013C3.98764 17.9615 3.59866 18.3346 3.11882 18.3346C2.63899 18.3346 2.25 17.9615 2.25 17.5013V15.8346C2.25 14.7296 2.70768 13.6698 3.52236 12.8884C4.33704 12.107 5.44198 11.668 6.59411 11.668H10.0694C11.2215 11.668 12.3265 12.107 13.1412 12.8884C13.9558 13.6698 14.4135 14.7296 14.4135 15.8346V17.5013C14.4135 17.9615 14.0245 18.3346 13.5447 18.3346C13.0649 18.3346 12.6759 17.9615 12.6759 17.5013V15.8346C12.6759 15.1716 12.4013 14.5357 11.9125 14.0669C11.4236 13.598 10.7607 13.3346 10.0694 13.3346H6.59411Z" fill="#454056"/>
<path fill-rule="evenodd" clip-rule="evenodd" d="M13.5718 2.40296C13.6908 1.9571 14.1642 1.68821 14.629 1.80236C15.5634 2.03184 16.3917 2.55309 16.9831 3.28394C17.5746 4.01478 17.8956 4.91364 17.8956 5.83882C17.8956 6.764 17.5746 7.66287 16.9831 8.39371C16.3917 9.12455 15.5634 9.6458 14.629 9.87528C14.1642 9.98944 13.6908 9.72054 13.5718 9.27469C13.4528 8.82883 13.7332 8.37486 14.198 8.2607C14.7587 8.12301 15.2556 7.81026 15.6105 7.37175C15.9653 6.93325 16.158 6.39393 16.158 5.83882C16.158 5.28372 15.9653 4.7444 15.6105 4.30589C15.2556 3.86739 14.7587 3.55464 14.198 3.41695C13.7332 3.30279 13.4528 2.84881 13.5718 2.40296Z" fill="#454056"/>
<path fill-rule="evenodd" clip-rule="evenodd" d="M15.3099 12.418C15.4299 11.9724 15.9037 11.7044 16.3684 11.8195C17.2967 12.0494 18.1197 12.5674 18.709 13.2928C19.2984 14.0182 19.6209 14.9103 19.6264 15.8299L19.6265 15.8347L19.6264 17.5013C19.6264 17.9616 19.2375 18.3347 18.7576 18.3347C18.2778 18.3347 17.8888 17.9616 17.8888 17.5013V15.8372C17.885 15.2863 17.6915 14.7519 17.3384 14.3172C16.9848 13.882 16.491 13.5712 15.934 13.4332C15.4694 13.3182 15.19 12.8636 15.3099 12.418Z" fill="#454056"/>
</svg>
