<svg width="36" height="37" viewBox="0 0 36 37" fill="none" xmlns="http://www.w3.org/2000/svg">
<g clip-path="url(#clip0_1207_148126)">
<path d="M34.0435 12.7907H1.95652C0.877711 12.7907 0 13.6684 0 14.7472V32.3559C0 33.4347 0.877711 34.3124 1.95652 34.3124H34.0435C35.1223 34.3124 36 33.4347 36 32.3559V14.7472C36 13.6684 35.1223 12.7907 34.0435 12.7907ZM33.6522 31.9645H2.3478V15.1385H33.6521L33.6522 31.9645Z" fill="#FF552B"/>
<path d="M5.47826 12.7907C4.82984 12.7907 4.30432 13.3162 4.30432 13.9646V15.1385C4.30432 16.0163 3.6168 16.7038 2.73909 16.7038H1.17394C0.525516 16.7037 0 17.2292 0 17.8776C0 18.5261 0.525516 19.0516 1.17394 19.0516H2.73916C4.89684 19.0516 6.65219 17.2962 6.65219 15.1385V13.9646C6.65219 13.3162 6.12668 12.7907 5.47826 12.7907Z" fill="#FF552B"/>
<path d="M34.8261 16.7037H33.6522C32.7745 16.7037 32.0869 16.0161 32.0869 15.1384V13.9645C32.0869 13.3161 31.5614 12.7906 30.913 12.7906C30.2646 12.7906 29.7391 13.3161 29.7391 13.9645V15.1384C29.7391 17.2961 31.4945 19.0515 33.6521 19.0515H34.826C35.4745 19.0515 36 18.5259 36 17.8775C36 17.2291 35.4745 16.7037 34.8261 16.7037Z" fill="#FF552B"/>
<path d="M2.73916 28.0515H1.17394C0.525516 28.0515 0 28.5771 0 29.2255C0 29.8739 0.525516 30.3994 1.17394 30.3994H2.73916C3.61688 30.3994 4.30439 31.0869 4.30439 31.9646V33.1386C4.30439 33.787 4.82991 34.3125 5.47833 34.3125C6.12675 34.3125 6.65227 33.787 6.65227 33.1386V31.9646C6.6522 29.807 4.89677 28.0515 2.73916 28.0515Z" fill="#FF552B"/>
<path d="M34.8261 28.0515H33.2608C31.1032 28.0515 29.3478 29.807 29.3478 31.9646V33.1385C29.3478 33.7869 29.8733 34.3125 30.5217 34.3125C31.1702 34.3125 31.6957 33.7869 31.6957 33.1385V31.9646C31.6957 31.0869 32.3832 30.3993 33.2609 30.3993H34.8261C35.4746 30.3993 36.0001 29.8738 36.0001 29.2254C36.0001 28.577 35.4745 28.0515 34.8261 28.0515Z" fill="#FF552B"/>
<path d="M31.6957 7.70356H4.30433C3.6559 7.70356 3.13039 8.22907 3.13039 8.87749C3.13039 9.52591 3.6559 10.0514 4.30433 10.0514H31.6956C32.344 10.0514 32.8696 9.52591 32.8696 8.87749C32.8696 8.22907 32.344 7.70356 31.6957 7.70356Z" fill="#FF552B"/>
<path d="M28.1739 3.00781H7.82602C7.1776 3.00781 6.65208 3.53333 6.65208 4.18175C6.65208 4.83017 7.1776 5.35569 7.82602 5.35569H28.1738C28.8222 5.35569 29.3478 4.83017 29.3478 4.18175C29.3478 3.53333 28.8222 3.00781 28.1739 3.00781Z" fill="#FF552B"/>
<path d="M18.0001 17.0557C14.44 17.0557 11.5435 19.9517 11.5435 23.5122C11.5435 27.0723 14.44 29.9687 18.0001 29.9687C21.5601 29.9687 24.4566 27.0723 24.4566 23.5122C24.4566 19.9521 21.5601 17.0557 18.0001 17.0557ZM18.0001 27.6209C15.7344 27.6209 13.8914 25.7778 13.8914 23.5122C13.8914 21.2465 15.7344 19.4031 18.0001 19.4031C20.2658 19.4031 22.1088 21.2465 22.1088 23.5122C22.1088 25.7778 20.2658 27.6209 18.0001 27.6209Z" fill="#FF552B"/>
</g>
<defs>
<clipPath id="clip0_1207_148126">
<rect width="36" height="36" fill="white" transform="translate(0 0.660156)"/>
</clipPath>
</defs>
</svg>
