<svg width="15" height="20" viewBox="0 0 15 20" fill="none" xmlns="http://www.w3.org/2000/svg">
<path fill-rule="evenodd" clip-rule="evenodd" d="M7.89254 2.53329C6.23569 2.53329 4.89254 3.78689 4.89254 5.33329C4.89254 6.87969 6.23569 8.13329 7.89254 8.13329C9.5494 8.13329 10.8925 6.87969 10.8925 5.33329C10.8925 3.78689 9.5494 2.53329 7.89254 2.53329ZM2.89254 5.33329C2.89254 2.75596 5.13112 0.666626 7.89254 0.666626C10.654 0.666626 12.8925 2.75596 12.8925 5.33329C12.8925 7.91062 10.654 9.99996 7.89254 9.99996C5.13112 9.99996 2.89254 7.91062 2.89254 5.33329Z" fill="#1F1B2D"/>
<path fill-rule="evenodd" clip-rule="evenodd" d="M5.89258 13.7333C5.09693 13.7333 4.33387 14.0283 3.77126 14.5534C3.20865 15.0785 2.89258 15.7907 2.89258 16.5333V18.4C2.89258 18.9154 2.44486 19.3333 1.89258 19.3333C1.34029 19.3333 0.892578 18.9154 0.892578 18.4V16.5333C0.892578 15.2956 1.41936 14.1086 2.35704 13.2335C3.29473 12.3583 4.5665 11.8666 5.89258 11.8666H9.89258C11.2187 11.8666 12.4904 12.3583 13.4281 13.2335C14.3658 14.1086 14.8926 15.2956 14.8926 16.5333V18.4C14.8926 18.9154 14.4449 19.3333 13.8926 19.3333C13.3403 19.3333 12.8926 18.9154 12.8926 18.4V16.5333C12.8926 15.7907 12.5765 15.0785 12.0139 14.5534C11.4513 14.0283 10.6882 13.7333 9.89258 13.7333H5.89258Z" fill="#1F1B2D"/>
</svg>
