<svg width="26" height="25" viewBox="0 0 26 25" fill="none" xmlns="http://www.w3.org/2000/svg">
<path d="M10.8157 4.41637C11.8284 2.66212 13.4965 1.38201 15.453 0.857652C17.4095 0.333293 19.4942 0.607637 21.2484 1.62033C23.0027 2.63303 24.2828 4.30112 24.8072 6.25765C25.3315 8.21417 25.0572 10.2989 24.0445 12.0531L23.756 12.5511C23.6588 12.7193 23.4989 12.842 23.3113 12.8923C23.1237 12.9426 22.9238 12.9162 22.7556 12.8191L17.6805 9.88982L14.8523 14.8404C16.8149 15.4365 18.5022 16.7913 19.7076 18.543C19.1765 18.508 18.6507 18.6673 18.2283 18.9912C16.8222 17.1575 14.8069 15.9755 12.6275 15.9755C10.448 15.9755 8.43266 17.1575 7.02658 18.9927C6.60438 18.6683 6.0786 18.5085 5.54728 18.543C7.1877 16.1586 9.71717 14.5108 12.6275 14.5108C12.8662 14.5108 13.102 14.5225 13.3349 14.543L16.4121 9.15748L10.7966 5.91326C10.6284 5.81614 10.5057 5.65619 10.4554 5.46858C10.4052 5.28098 10.4315 5.08109 10.5286 4.91289L10.8157 4.41491V4.41637ZM12.1646 5.01395L14.6589 6.45372C14.6642 6.44533 14.6695 6.43703 14.675 6.42882C15.4601 5.34497 16.1983 4.51158 17.1635 3.78071C17.8845 3.24777 18.6567 2.78804 19.4689 2.40832C18.1369 1.94276 16.6857 1.94741 15.3567 2.42149C14.0277 2.89557 12.9012 3.81048 12.1646 5.01395ZM19.2243 9.08864C19.9054 7.89348 20.232 6.95024 20.3462 6.03482C20.4385 5.2981 20.3975 4.54819 20.2598 3.65328C19.3385 4.08975 18.6399 4.49986 18.0482 4.94804C17.2631 5.5427 16.6377 6.22669 15.9332 7.18898L19.2243 9.08864ZM20.4927 9.82098L22.8523 11.1831C23.4918 10.0067 23.7317 8.65426 23.5357 7.32965C23.3397 6.00504 22.7184 4.78004 21.7655 3.8393C21.8695 4.65951 21.8973 5.43285 21.7992 6.21644C21.6542 7.37499 21.2426 8.50571 20.4927 9.82098ZM6.38506 20.5057C6.33487 20.355 6.23706 20.2247 6.10638 20.1345C5.9757 20.0443 5.81922 19.999 5.66054 20.0054C5.50186 20.0119 5.34958 20.0697 5.22664 20.1702C5.10371 20.2708 5.01679 20.4086 4.97899 20.5628C4.72999 21.5793 4.25837 22.1373 3.72084 22.461C3.15841 22.8008 2.44219 22.9326 1.64249 22.9326C1.44826 22.9326 1.26199 23.0098 1.12465 23.1471C0.987312 23.2845 0.910156 23.4707 0.910156 23.665C0.910156 23.8592 0.987312 24.0455 1.12465 24.1828C1.26199 24.3201 1.44826 24.3973 1.64249 24.3973C2.57694 24.3973 3.59488 24.2479 4.47807 23.7162C5.00454 23.3982 5.44823 22.96 5.77283 22.4376C7.52018 24.6653 10.9314 24.6551 12.6275 22.4141C14.3514 24.6902 17.8416 24.6653 19.5626 22.3307C20.0301 22.9667 20.6396 23.4848 21.3427 23.8436C22.0459 24.2024 22.8231 24.392 23.6124 24.3973C23.8066 24.3973 23.9929 24.3201 24.1303 24.1828C24.2676 24.0455 24.3447 23.8592 24.3447 23.665C24.3447 23.4707 24.2676 23.2845 24.1303 23.1471C23.9929 23.0098 23.8066 22.9326 23.6124 22.9326C22.1727 22.9326 20.7373 21.9952 20.2627 20.513C20.2154 20.3662 20.1228 20.2382 19.9984 20.1471C19.8739 20.056 19.7239 20.0065 19.5697 20.0057C19.4154 20.0049 19.2649 20.0528 19.1395 20.1425C19.0141 20.2323 18.9202 20.3594 18.8713 20.5057C17.9295 23.3457 14.243 23.309 13.3202 20.6229C13.2708 20.4784 13.1774 20.3531 13.0532 20.2644C12.9289 20.1756 12.7801 20.1279 12.6275 20.1279C12.4748 20.1279 12.326 20.1756 12.2017 20.2644C12.0775 20.3531 11.9842 20.4784 11.9347 20.6229C11.0119 23.309 7.32538 23.3457 6.3836 20.5057H6.38506Z" fill="#07C98B"/>
</svg>
