<svg width="25" height="25" viewBox="0 0 25 25" fill="none" xmlns="http://www.w3.org/2000/svg">
<path fill-rule="evenodd" clip-rule="evenodd" d="M12.5991 4.16536C12.3348 4.16536 12.0813 4.27511 11.8943 4.47046C11.7111 4.66196 11.6066 4.92035 11.6025 5.19071C11.6055 5.39413 11.551 5.59383 11.4479 5.76439C11.373 5.88825 11.2725 5.99674 11.1496 6.08012C11.1063 6.10959 11.0608 6.13565 11.0132 6.15794C10.0402 6.64311 9.21057 7.39426 8.61239 8.33203C8.01456 9.26924 7.67027 10.3578 7.61571 11.4824V14.582C7.61571 14.6239 7.6133 14.6657 7.60849 14.7072C7.5285 15.3978 7.31711 16.0635 6.98801 16.6654H18.2102C17.8811 16.0635 17.6697 15.3978 17.5897 14.7072C17.5849 14.6657 17.5825 14.6239 17.5825 14.582V11.4824C17.5279 10.3578 17.1836 9.26924 16.5858 8.33203C15.9838 7.3883 15.1475 6.63357 14.1664 6.14873C13.818 5.97654 13.5958 5.60984 13.5958 5.20703C13.5958 4.93076 13.4908 4.66581 13.3039 4.47046C13.1169 4.27511 12.8634 4.16536 12.5991 4.16536ZM9.67882 4.53591C9.80049 3.95765 10.078 3.42253 10.4848 2.99732C11.0456 2.41127 11.8061 2.08203 12.5991 2.08203C13.3921 2.08203 14.1526 2.41127 14.7134 2.99732C15.1202 3.42253 15.3977 3.95765 15.5194 4.53591C16.6117 5.17811 17.5462 6.08194 18.2444 7.17641C19.047 8.43471 19.5069 9.89756 19.5747 11.4082C19.5755 11.4245 19.5758 11.4407 19.5758 11.457V14.5147C19.6381 14.9795 19.7998 15.4239 20.0491 15.8148C20.3088 16.2218 20.6563 16.5595 21.0636 16.8006C21.4575 17.0337 21.6516 17.515 21.5363 17.9724C21.421 18.4299 21.0252 18.7487 20.5725 18.7487H4.62568C4.17303 18.7487 3.77722 18.4299 3.66189 17.9724C3.54656 17.515 3.74068 17.0337 4.13456 16.8006C4.5419 16.5595 4.8894 16.2218 5.14907 15.8148C5.39841 15.4239 5.56008 14.9795 5.62235 14.5147V11.457C5.62235 11.4407 5.62272 11.4245 5.62345 11.4082C5.69129 9.89756 6.15118 8.43471 6.95381 7.17641C7.65195 6.08194 8.5865 5.17811 9.67882 4.53591Z" fill="#FF552B"/>
<path fill-rule="evenodd" clip-rule="evenodd" d="M9.60906 16.6654C10.1595 16.6654 10.6057 17.1318 10.6057 17.707V18.7487C10.6057 19.3013 10.8158 19.8312 11.1896 20.2219C11.5634 20.6126 12.0704 20.832 12.5991 20.832C13.1278 20.832 13.6348 20.6126 14.0086 20.2219C14.3824 19.8312 14.5925 19.3013 14.5925 18.7487V17.707C14.5925 17.1318 15.0387 16.6654 15.5891 16.6654C16.1396 16.6654 16.5858 17.1318 16.5858 17.707V18.7487C16.5858 19.8538 16.1658 20.9136 15.4181 21.695C14.6705 22.4764 13.6564 22.9154 12.5991 22.9154C11.5418 22.9154 10.5277 22.4764 9.78006 21.695C9.03241 20.9136 8.61238 19.8538 8.61238 18.7487V17.707C8.61238 17.1318 9.05861 16.6654 9.60906 16.6654Z" fill="#FF552B"/>
</svg>
