<svg width="32" height="30" viewBox="0 0 32 30" fill="none" xmlns="http://www.w3.org/2000/svg">
<g id="cafe" clip-path="url(#clip0_1207_147554)">
<path id="Vector" d="M20.5962 16.1534L18.7873 17.9206L16.5367 15.722L18.2067 14.0906C19.0975 14.6854 20.1492 15.0062 21.2516 15.0062C22.6972 15.0062 24.0562 14.4562 25.0784 13.4576L31.1445 7.5316L29.7146 6.13478L24.996 10.7445L24.3512 10.1145L29.0698 5.50484L27.64 4.10803L22.9214 8.71771L22.2766 8.08777L26.9952 3.47809L25.5654 2.08127L20.8468 6.69096L20.2019 6.06102L24.9206 1.45133L23.4909 0.0546875L17.4248 5.9808C15.7532 7.61375 15.4073 10.0575 16.3841 12.0277L10.6232 6.3998C8.40007 4.22803 5.21624 3.20023 2.10612 3.65047C1.37066 3.75699 0.76878 4.25158 0.535524 4.94129C0.302268 5.63094 0.483943 6.37853 1.00971 6.89205L11.8628 17.4946L11.3999 17.9468L9.591 16.1796L1.59546 23.9905C0.203904 25.35 0.203904 27.562 1.59546 28.9215C2.26962 29.5801 3.16594 29.9428 4.11923 29.9428C5.07259 29.9428 5.9689 29.5801 6.64294 28.9215L14.6385 21.1105L12.8296 19.3434L15.1068 17.1187L17.3574 19.3173L15.5485 21.0845L23.5442 28.8954C24.2183 29.554 25.1146 29.9167 26.0679 29.9167C27.0212 29.9167 27.9176 29.554 28.5917 28.8955C29.9832 27.536 29.9832 25.3239 28.5917 23.9644L20.5962 16.1534ZM18.7744 7.45994L23.5643 12.1393C22.9345 12.7146 22.1181 13.0309 21.2516 13.0309C20.3461 13.0309 19.4949 12.6863 18.8546 12.0609C17.5605 10.7966 17.5343 8.75662 18.7744 7.45994ZM5.21324 27.5248C4.92102 27.8103 4.53254 27.9675 4.11935 27.9675C3.70616 27.9675 3.31762 27.8102 3.02541 27.5248H3.02535C2.42214 26.9354 2.42214 25.9766 3.02535 25.3873L9.59112 18.9731L11.7791 21.1106L5.21324 27.5248ZM13.2926 16.0977L2.53316 5.5867C4.9711 5.27475 7.45205 6.09541 9.19334 7.79662L15.4917 13.9494L13.2926 16.0977ZM27.162 27.4987C26.8697 27.7842 26.4812 27.9414 26.068 27.9414C25.6547 27.9414 25.2662 27.7842 24.974 27.4987L18.4083 21.0845L20.5963 18.9471L27.1621 25.3613C27.7652 25.9505 27.7652 26.9094 27.162 27.4987Z" fill="#FF552B"/>
</g>
<defs>
<clipPath id="clip0_1207_147554">
<rect width="30.7089" height="30" fill="white" transform="translate(0.435547)"/>
</clipPath>
</defs>
</svg>
