<svg width="14" height="15" viewBox="0 0 14 15" fill="none" xmlns="http://www.w3.org/2000/svg">
<path fill-rule="evenodd" clip-rule="evenodd" d="M2.5 2.99999C2.08579 2.99999 1.75 3.33578 1.75 3.74999V12.75C1.75 13.1642 2.08579 13.5 2.5 13.5H11.5C11.9142 13.5 12.25 13.1642 12.25 12.75V3.74999C12.25 3.33578 11.9142 2.99999 11.5 2.99999H2.5ZM0.25 3.74999C0.25 2.50735 1.25736 1.49999 2.5 1.49999H11.5C12.7426 1.49999 13.75 2.50735 13.75 3.74999V12.75C13.75 13.9926 12.7426 15 11.5 15H2.5C1.25736 15 0.25 13.9926 0.25 12.75V3.74999Z" fill="#FF2F01"/>
<path fill-rule="evenodd" clip-rule="evenodd" d="M10 0C10.4142 0 10.75 0.335786 10.75 0.75V3.75C10.75 4.16421 10.4142 4.5 10 4.5C9.58579 4.5 9.25 4.16421 9.25 3.75V0.75C9.25 0.335786 9.58579 0 10 0Z" fill="#FF2F01"/>
<path fill-rule="evenodd" clip-rule="evenodd" d="M4.00003 0C4.41424 0 4.75003 0.335786 4.75003 0.75V3.75C4.75003 4.16421 4.41424 4.5 4.00003 4.5C3.58581 4.5 3.25003 4.16421 3.25003 3.75V0.75C3.25003 0.335786 3.58581 0 4.00003 0Z" fill="#FF2F01"/>
<path fill-rule="evenodd" clip-rule="evenodd" d="M0.25 6.74999C0.25 6.33578 0.585786 5.99999 1 5.99999H13C13.4142 5.99999 13.75 6.33578 13.75 6.74999C13.75 7.16421 13.4142 7.49999 13 7.49999H1C0.585786 7.49999 0.25 7.16421 0.25 6.74999Z" fill="#FF2F01"/>
</svg>
