<svg width="12" height="12" viewBox="0 0 12 12" fill="none" xmlns="http://www.w3.org/2000/svg">
<path fill-rule="evenodd" clip-rule="evenodd" d="M6.22326 1.90871C5.0752 1.86216 3.95462 2.18863 3.07023 2.81605C2.18708 3.4426 1.60594 4.32072 1.41237 5.27703C1.21916 6.23156 1.42035 7.22078 1.99108 8.06489C2.09266 8.21512 2.11859 8.40405 2.06124 8.5761L1.6253 9.8839L3.36978 9.51273C3.49677 9.48571 3.62914 9.50183 3.74593 9.55853C4.74585 10.044 5.91645 10.1922 7.03636 9.97037C8.15614 9.74854 9.13247 9.17546 9.79247 8.37476C10.4507 7.5762 10.7518 6.60466 10.6573 5.63974C10.5627 4.67389 10.0755 3.75643 9.26404 3.06428C8.45105 2.37084 7.37131 1.95526 6.22326 1.90871ZM0.716817 11.2492C0.772462 11.2523 0.827549 11.2474 0.88057 11.2351L3.42211 10.6944C4.61196 11.2234 5.96724 11.3715 7.26308 11.1148C8.62697 10.8446 9.84879 10.1407 10.6927 9.11682C11.5384 8.09082 11.9446 6.81444 11.8184 5.526C11.6923 4.2385 11.0457 3.05053 10.0211 2.17664C8.99808 1.30402 7.66445 0.799515 6.27052 0.742998C4.87662 0.686481 3.49961 1.08099 2.39518 1.86452C1.28951 2.64894 0.525923 3.77576 0.268896 5.04558C0.0307062 6.22234 0.246746 7.42908 0.866825 8.47001L0.199231 10.4728C0.181102 10.5241 0.170033 10.5783 0.166944 10.6339C0.162884 10.7055 0.17222 10.7762 0.193347 10.8427C0.218807 10.9235 0.260716 10.9954 0.314493 11.0554C0.368158 11.1156 0.434904 11.1653 0.512291 11.1996C0.576042 11.228 0.645222 11.2452 0.716817 11.2492Z" fill="#9691A4"/>
</svg>
