<svg width="18" height="18" viewBox="0 0 18 18" fill="none" xmlns="http://www.w3.org/2000/svg">
<path fill-rule="evenodd" clip-rule="evenodd" d="M3 2C2.44772 2 2 2.44772 2 3V15C2 15.5523 2.44772 16 3 16H15C15.5523 16 16 15.5523 16 15V3C16 2.44772 15.5523 2 15 2H3ZM0 3C0 1.34315 1.34315 0 3 0H15C16.6569 0 18 1.34315 18 3V15C18 16.6569 16.6569 18 15 18H3C1.34315 18 0 16.6569 0 15V3Z" fill="black"/>
<path fill-rule="evenodd" clip-rule="evenodd" d="M12.7071 6.29289C13.0976 6.68342 13.0976 7.31658 12.7071 7.70711L8.70711 11.7071C8.51958 11.8946 8.26522 12 8 12C7.73479 12 7.48043 11.8946 7.2929 11.7071L5.2929 9.70711C4.90237 9.31658 4.90237 8.68342 5.2929 8.29289C5.68342 7.90237 6.31659 7.90237 6.70711 8.29289L8 9.58579L11.2929 6.29289C11.6834 5.90237 12.3166 5.90237 12.7071 6.29289Z" fill="black"/>
</svg>
