<svg width="12" height="13" viewBox="0 0 12 13" fill="none" xmlns="http://www.w3.org/2000/svg">
<path fill-rule="evenodd" clip-rule="evenodd" d="M6 0.034935C2.68629 0.034935 0 2.72123 0 6.03493C0 9.34864 2.68629 12.0349 6 12.0349C9.31371 12.0349 12 9.34864 12 6.03493C12 2.72123 9.31371 0.034935 6 0.034935ZM8.78033 4.00459C9.07322 4.29748 9.07322 4.77236 8.78033 5.06525L5.78033 8.06525C5.63968 8.2059 5.44891 8.28492 5.25 8.28492C5.05109 8.28492 4.86032 8.2059 4.71967 8.06525L3.21967 6.56525C2.92678 6.27236 2.92678 5.79749 3.21967 5.50459C3.51256 5.2117 3.98744 5.2117 4.28033 5.50459L5.25 6.47426L7.71967 4.00459C8.01256 3.7117 8.48744 3.7117 8.78033 4.00459Z" fill="#FF552B"/>
</svg>
