<svg width="19" height="18" viewBox="0 0 19 18" fill="none" xmlns="http://www.w3.org/2000/svg">
<path d="M4.30868 13.4462H14.97M4.30868 10.6654C3.40775 10.4719 2.61719 9.93608 2.10377 9.17092C1.59034 8.40575 1.39419 7.47107 1.55669 6.56406C1.71919 5.65704 2.22764 4.8486 2.97478 4.30928C3.72193 3.76996 4.64934 3.54193 5.56139 3.67328C5.78583 3.16388 6.10205 2.7001 6.49426 2.30507C6.9069 1.89138 7.39711 1.56317 7.9368 1.33922C8.47649 1.11527 9.05505 1 9.63936 1C10.2237 1 10.8022 1.11527 11.3419 1.33922C11.8816 1.56317 12.3718 1.89138 12.7845 2.30507C13.1767 2.7001 13.4929 3.16388 13.7173 3.67328C14.6294 3.54193 15.5568 3.76996 16.3039 4.30928C17.0511 4.8486 17.5595 5.65704 17.722 6.56406C17.8845 7.47107 17.6884 8.40575 17.175 9.17092C16.6615 9.93608 15.871 10.4719 14.97 10.6654V17H4.30868V10.6654Z" stroke="#5C586B" stroke-width="2" stroke-linecap="round" stroke-linejoin="round"/>
</svg>
