<svg width="19" height="19" viewBox="0 0 19 19" fill="none" xmlns="http://www.w3.org/2000/svg">
<path fill-rule="evenodd" clip-rule="evenodd" d="M9.83105 3.5C6.51735 3.5 3.83105 6.18629 3.83105 9.5C3.83105 12.8137 6.51735 15.5 9.83105 15.5C13.1448 15.5 15.8311 12.8137 15.8311 9.5C15.8311 6.18629 13.1448 3.5 9.83105 3.5ZM2.33105 9.5C2.33105 5.35786 5.68892 2 9.83105 2C13.9732 2 17.3311 5.35786 17.3311 9.5C17.3311 13.6421 13.9732 17 9.83105 17C5.68892 17 2.33105 13.6421 2.33105 9.5Z" fill="#FF552B"/>
<path fill-rule="evenodd" clip-rule="evenodd" d="M6.83106 9.5C6.83106 9.08579 7.16684 8.75 7.58106 8.75H12.0811C12.4953 8.75 12.8311 9.08579 12.8311 9.5C12.8311 9.91421 12.4953 10.25 12.0811 10.25H7.58106C7.16684 10.25 6.83106 9.91421 6.83106 9.5Z" fill="#FF552B"/>
<path fill-rule="evenodd" clip-rule="evenodd" d="M9.83105 6.5C10.2453 6.5 10.5811 6.83579 10.5811 7.25V11.75C10.5811 12.1642 10.2453 12.5 9.83105 12.5C9.41684 12.5 9.08105 12.1642 9.08105 11.75V7.25C9.08105 6.83579 9.41684 6.5 9.83105 6.5Z" fill="#FF552B"/>
</svg>
