<svg width="41" height="40" viewBox="0 0 41 40" fill="none" xmlns="http://www.w3.org/2000/svg">
<g id="minus/circle">
<path id="vector" fill-rule="evenodd" clip-rule="evenodd" d="M20.5007 6.66536C13.1369 6.66536 7.16732 12.6349 7.16732 19.9987C7.16732 27.3625 13.1369 33.332 20.5007 33.332C27.8644 33.332 33.834 27.3625 33.834 19.9987C33.834 12.6349 27.8644 6.66536 20.5007 6.66536ZM3.83398 19.9987C3.83398 10.794 11.2959 3.33203 20.5007 3.33203C29.7054 3.33203 37.1673 10.794 37.1673 19.9987C37.1673 29.2034 29.7054 36.6654 20.5007 36.6654C11.2959 36.6654 3.83398 29.2034 3.83398 19.9987ZM13.834 19.9987C13.834 19.0782 14.5802 18.332 15.5007 18.332H25.5007C26.4211 18.332 27.1673 19.0782 27.1673 19.9987C27.1673 20.9192 26.4211 21.6654 25.5007 21.6654H15.5007C14.5802 21.6654 13.834 20.9192 13.834 19.9987Z" fill="#FF552B"/>
</g>
</svg>
