<svg width="24" height="23" viewBox="0 0 24 23" fill="none" xmlns="http://www.w3.org/2000/svg">
<g id="clock">
<g id="vector">
<path fill-rule="evenodd" clip-rule="evenodd" d="M11.9993 4.28255C7.76517 4.28255 4.33268 7.5658 4.33268 11.6159C4.33268 15.666 7.76517 18.9492 11.9993 18.9492C16.2335 18.9492 19.666 15.666 19.666 11.6159C19.666 7.5658 16.2335 4.28255 11.9993 4.28255ZM2.41602 11.6159C2.41602 6.55328 6.70662 2.44922 11.9993 2.44922C17.2921 2.44922 21.5827 6.55328 21.5827 11.6159C21.5827 16.6785 17.2921 20.7826 11.9993 20.7826C6.70662 20.7826 2.41602 16.6785 2.41602 11.6159Z" fill="black"/>
<path fill-rule="evenodd" clip-rule="evenodd" d="M11.9993 6.11602C12.5286 6.11602 12.9577 6.52643 12.9577 7.03269V11.2363L15.552 13.7178C15.9262 14.0758 15.9262 14.6562 15.552 15.0142C15.1777 15.3722 14.571 15.3722 14.1967 15.0142L11.3217 12.2642C11.142 12.0923 11.041 11.8591 11.041 11.616V7.03269C11.041 6.52643 11.4701 6.11602 11.9993 6.11602Z" fill="black"/>
</g>
</g>
</svg>
