<svg width="14" height="12" viewBox="0 0 14 12" fill="none" xmlns="http://www.w3.org/2000/svg">
<path fill-rule="evenodd" clip-rule="evenodd" d="M11.0007 0.799988H3.00065C1.53398 0.799988 0.333984 1.99999 0.333984 3.46665V8.79999C0.333984 10.2667 1.53398 11.4667 3.00065 11.4667H11.0007C12.4673 11.4667 13.6673 10.2667 13.6673 8.79999V3.46665C13.6673 1.99999 12.4673 0.799988 11.0007 0.799988ZM1.66732 3.46665C1.66732 2.73332 2.26732 2.13332 3.00065 2.13332H11.0007C11.734 2.13332 12.334 2.73332 12.334 3.46665V4.13332H1.66732V3.46665ZM12.334 8.79999C12.334 9.53332 11.734 10.1333 11.0007 10.1333H3.00065C2.26732 10.1333 1.66732 9.53332 1.66732 8.79999V5.46665H12.334V8.79999ZM3.00065 8.13332C3.00065 7.73332 3.26732 7.46665 3.66732 7.46665C4.06732 7.46665 4.33398 7.73332 4.33398 8.13332C4.33398 8.53332 4.06732 8.79999 3.66732 8.79999C3.26732 8.79999 3.00065 8.53332 3.00065 8.13332ZM5.66732 8.13332C5.66732 7.73332 5.93398 7.46665 6.33398 7.46665H7.66732C8.06732 7.46665 8.33398 7.73332 8.33398 8.13332C8.33398 8.53332 8.06732 8.79999 7.66732 8.79999H6.33398C5.93398 8.79999 5.66732 8.53332 5.66732 8.13332Z" fill="#454056"/>
</svg>
