<svg width="18" height="14" viewBox="0 0 18 14" fill="none" xmlns="http://www.w3.org/2000/svg">
<path fill-rule="evenodd" clip-rule="evenodd" d="M6.21429 5.5C5.65445 5.5 5.25 5.9297 5.25 6.4V11.35C5.25 11.8203 5.65445 12.25 6.21429 12.25H14.7857C15.3456 12.25 15.75 11.8203 15.75 11.35V6.4C15.75 5.9297 15.3456 5.5 14.7857 5.5H6.21429ZM3.75 6.4C3.75 5.04776 4.88057 4 6.21429 4H14.7857C16.1194 4 17.25 5.04776 17.25 6.4V11.35C17.25 12.7022 16.1194 13.75 14.7857 13.75H6.21429C4.88057 13.75 3.75 12.7022 3.75 11.35V6.4Z" fill="white"/>
<path fill-rule="evenodd" clip-rule="evenodd" d="M10.875 7.75C10.2537 7.75 9.75 8.25368 9.75 8.875C9.75 9.49632 10.2537 10 10.875 10C11.4963 10 12 9.49632 12 8.875C12 8.25368 11.4963 7.75 10.875 7.75ZM8.25 8.875C8.25 7.42525 9.42525 6.25 10.875 6.25C12.3247 6.25 13.5 7.42525 13.5 8.875C13.5 10.3247 12.3247 11.5 10.875 11.5C9.42525 11.5 8.25 10.3247 8.25 8.875Z" fill="white"/>
<path fill-rule="evenodd" clip-rule="evenodd" d="M1.482 0.942909C1.94615 0.496163 2.56977 0.25 3.21429 0.25H11.7857C12.4302 0.25 13.0538 0.496163 13.518 0.942909C13.9831 1.39059 14.25 2.00403 14.25 2.65V4.3C14.25 4.71421 13.9142 5.05 13.5 5.05C13.0858 5.05 12.75 4.71421 12.75 4.3V2.65C12.75 2.42076 12.6557 2.19482 12.4778 2.02364C12.299 1.85151 12.0505 1.75 11.7857 1.75H3.21429C2.94949 1.75 2.70103 1.85151 2.5222 2.02364C2.34435 2.19483 2.25 2.42076 2.25 2.65V7.6C2.25 7.82924 2.34435 8.05517 2.5222 8.22636C2.70103 8.39849 2.94949 8.5 3.21429 8.5H4.17857C4.59279 8.5 4.92857 8.83579 4.92857 9.25C4.92857 9.66421 4.59279 10 4.17857 10H3.21429C2.56977 10 1.94615 9.75384 1.482 9.30709C1.01688 8.85941 0.75 8.24597 0.75 7.6V2.65C0.75 2.00403 1.01687 1.39059 1.482 0.942909Z" fill="white"/>
</svg>
