<svg width="18" height="24" viewBox="0 0 18 24" fill="none" xmlns="http://www.w3.org/2000/svg">
<path d="M17.2163 4.78678C17.0861 4.45032 16.769 4.23296 16.4082 4.23296H11.8484L12.0734 3.09101L15.7224 1.48875C16.075 1.33386 16.2354 0.922583 16.0805 0.569955C15.9256 0.217327 15.5143 0.0569916 15.1617 0.211879L11.1795 1.96067C10.959 2.05727 10.8138 2.25429 10.7736 2.47436L10.427 4.23296H1.68539C1.32931 4.23296 1.01354 4.4465 0.881173 4.77698C0.752433 5.09819 0.825247 5.45917 1.06602 5.70485L8.16797 13.39V22.5584H4.48826C4.10313 22.5584 3.79099 22.8705 3.79099 23.2556C3.79099 23.6408 4.10313 23.9529 4.48826 23.9529H13.2422C13.6274 23.9529 13.9395 23.6408 13.9395 23.2556C13.9395 22.8705 13.6274 22.5584 13.2422 22.5584H9.5625V13.3997L17.0127 5.71974C17.2626 5.47697 17.3427 5.11399 17.2163 4.78678ZM2.89308 5.62732H10.1521L9.85358 7.14151H4.29233L2.89308 5.62732ZM8.8774 12.103L5.581 8.53604H12.338L8.8774 12.103ZM13.6907 7.14151H11.275L11.5735 5.62732H15.1595L13.6907 7.14151Z" fill="#3C76F2"/>
</svg>
