<svg width="20" height="20" viewBox="0 0 20 20" fill="none" xmlns="http://www.w3.org/2000/svg">
<path fill-rule="evenodd" clip-rule="evenodd" d="M3.6851 5.73306C4.14127 5.26422 4.75997 5.00083 5.40509 5.00083H7.83752C8.28532 5.00083 8.64833 5.37392 8.64833 5.83416C8.64833 6.2944 8.28532 6.66749 7.83752 6.66749H5.40509C5.19005 6.66749 4.98382 6.75529 4.83176 6.91157C4.6797 7.06785 4.59428 7.27981 4.59428 7.50083V15.0008C4.59428 15.2218 4.6797 15.4338 4.83176 15.5901C4.98382 15.7464 5.19005 15.8342 5.40509 15.8342H12.7024C12.9174 15.8342 13.1237 15.7464 13.2757 15.5901C13.4278 15.4338 13.5132 15.2218 13.5132 15.0008V12.5008C13.5132 12.0406 13.8762 11.6675 14.324 11.6675C14.7718 11.6675 15.1348 12.0406 15.1348 12.5008V15.0008C15.1348 15.6639 14.8785 16.2998 14.4224 16.7686C13.9662 17.2374 13.3475 17.5008 12.7024 17.5008H5.40509C4.75997 17.5008 4.14127 17.2374 3.6851 16.7686C3.22893 16.2998 2.97266 15.6639 2.97266 15.0008V7.50083C2.97266 6.83779 3.22893 6.2019 3.6851 5.73306Z" fill="#454056"/>
<path fill-rule="evenodd" clip-rule="evenodd" d="M14.1561 2.32825C14.6307 1.84045 15.2744 1.56641 15.9456 1.56641C16.6168 1.56641 17.2606 1.84045 17.7352 2.32825C18.2098 2.81605 18.4764 3.47765 18.4764 4.16751C18.4764 4.85736 18.2098 5.51896 17.7352 6.00676L10.8433 13.0901C10.6912 13.2464 10.485 13.3342 10.27 13.3342H7.83753C7.38973 13.3342 7.02671 12.9611 7.02671 12.5008V10.0008C7.02671 9.77983 7.11214 9.56786 7.2642 9.41158L14.1561 2.32825ZM15.9456 3.23307C15.7045 3.23307 15.4733 3.33152 15.3027 3.50676L8.64834 10.346V11.6675H9.93411L16.5885 4.82825C16.759 4.65301 16.8548 4.41533 16.8548 4.16751C16.8548 3.91968 16.759 3.682 16.5885 3.50676C16.418 3.33152 16.1868 3.23307 15.9456 3.23307Z" fill="#454056"/>
<path fill-rule="evenodd" clip-rule="evenodd" d="M12.9399 3.57827C13.2565 3.25283 13.7699 3.25283 14.0865 3.57827L16.519 6.07827C16.8356 6.40371 16.8356 6.93134 16.519 7.25678C16.2023 7.58222 15.6889 7.58222 15.3723 7.25678L12.9399 4.75678C12.6232 4.43134 12.6232 3.90371 12.9399 3.57827Z" fill="#454056"/>
</svg>
