<svg width="12" height="12" viewBox="0 0 12 12" fill="none" xmlns="http://www.w3.org/2000/svg">
<path fill-rule="evenodd" clip-rule="evenodd" d="M7.19526 1.19677C7.67391 0.71812 8.32309 0.449219 9 0.449219C9.67691 0.449219 10.3261 0.71812 10.8047 1.19677C11.2834 1.67541 11.5523 2.3246 11.5523 3.0015C11.5523 3.67841 11.2834 4.3276 10.8047 4.80624L3.80474 11.8062C3.67971 11.9313 3.51014 12.0015 3.33333 12.0015H0.666667C0.298477 12.0015 0 11.703 0 11.3348V8.66817C0 8.49136 0.0702379 8.32179 0.195262 8.19677L7.19526 1.19677ZM9 1.78255C8.67672 1.78255 8.36667 1.91098 8.13807 2.13957L1.33333 8.94431V10.6682H3.05719L9.86193 3.86343C10.0905 3.63484 10.219 3.32479 10.219 3.0015C10.219 2.67822 10.0905 2.36817 9.86193 2.13957C9.63333 1.91098 9.32329 1.78255 9 1.78255Z" fill="#454056"/>
<path fill-rule="evenodd" clip-rule="evenodd" d="M6.52859 1.86345C6.78894 1.6031 7.21105 1.6031 7.4714 1.86345L10.1381 4.53012C10.3984 4.79047 10.3984 5.21258 10.1381 5.47293C9.87772 5.73328 9.45561 5.73328 9.19526 5.47293L6.52859 2.80626C6.26825 2.54591 6.26825 2.1238 6.52859 1.86345Z" fill="#454056"/>
</svg>
