<svg width="24" height="25" viewBox="0 0 24 25" fill="none" xmlns="http://www.w3.org/2000/svg">
<g clip-path="url(#clip0_1207_146074)">
<path d="M2.97782 25H11.9116V16.4062H8.9337V12.5H11.9116V9.375C11.9116 6.78542 13.9108 4.6875 16.3786 4.6875H19.3565V8.59375H17.8675C17.0456 8.59375 16.3786 8.5125 16.3786 9.375V12.5H20.101L18.612 16.4062H16.3786V25H20.8455C22.4873 25 23.8234 23.5979 23.8234 21.875V3.125C23.8234 1.40104 22.4873 0 20.8455 0H2.97782C1.33499 0 -0.00012207 1.40104 -0.00012207 3.125V21.875C-0.00012207 23.5979 1.33499 25 2.97782 25Z" fill="white"/>
</g>
<defs>
<clipPath id="clip0_1207_146074">
<rect width="23.8235" height="25" fill="white"/>
</clipPath>
</defs>
</svg>
