<svg width="31" height="31" viewBox="0 0 31 31" fill="none" xmlns="http://www.w3.org/2000/svg">
<rect x="0.300781" y="0.648438" width="30" height="30" rx="15" fill="white"/>
<path fill-rule="evenodd" clip-rule="evenodd" d="M13.0642 11.9125C12.7212 11.876 12.3744 11.9108 12.0455 12.0148C11.7167 12.1188 11.4129 12.2898 11.1534 12.5169C10.8939 12.7441 10.6843 13.0225 10.5377 13.3346C10.3911 13.6467 10.3107 13.9858 10.3016 14.3304C10.2926 14.6751 10.355 15.018 10.4849 15.3374C10.6149 15.6568 10.8096 15.9458 11.0567 16.1863L11.0607 16.1901L15.306 20.3939L19.5429 16.1985C19.5552 16.1831 19.5706 16.1638 19.5884 16.1413C19.6388 16.0774 19.7073 15.9886 19.78 15.8888C19.9383 15.6716 20.0718 15.4627 20.1198 15.3434C20.2483 15.0246 20.3095 14.6827 20.2998 14.3391C20.29 13.9955 20.2094 13.6576 20.063 13.3466C19.9166 13.0356 19.7076 12.7581 19.449 12.5316C19.1904 12.305 18.8878 12.1343 18.5602 12.03C18.2325 11.9258 17.8869 11.8902 17.5449 11.9257C17.2028 11.9611 16.8718 12.0667 16.5725 12.236C16.2732 12.4052 16.0121 12.6343 15.8055 12.9091C15.6871 13.0666 15.5013 13.159 15.3042 13.1584C15.1072 13.1579 14.922 13.0644 14.8044 12.9063C14.5987 12.6295 14.3378 12.3984 14.0383 12.2273C13.7388 12.0563 13.4072 11.9491 13.0642 11.9125ZM20.4708 17.0348C20.4727 17.0363 20.4727 17.0363 20.4727 17.0363L20.4752 17.0333L20.4808 17.0264L20.5007 17.002C20.5175 16.9813 20.5412 16.9518 20.57 16.9152C20.6273 16.8425 20.7058 16.7408 20.7901 16.6252C20.9459 16.4115 21.1666 16.09 21.2792 15.8106C21.472 15.3322 21.5639 14.8191 21.5493 14.3036C21.5346 13.788 21.4136 13.281 21.194 12.8143C20.9743 12.3476 20.6607 11.9313 20.2727 11.5914C19.8847 11.2515 19.4308 10.9953 18.9392 10.8389C18.4477 10.6825 17.9291 10.6292 17.416 10.6823C16.9029 10.7355 16.4063 10.894 15.9573 11.1478C15.7245 11.2794 15.5071 11.4352 15.3086 11.6122C15.1098 11.4331 14.8918 11.2753 14.6582 11.1419C14.2089 10.8853 13.7113 10.7245 13.1968 10.6696C12.6822 10.6147 12.1619 10.6669 11.6685 10.823C11.1752 10.979 10.7195 11.2355 10.3301 11.5763C9.94079 11.9171 9.62622 12.3348 9.40626 12.8032C9.1863 13.2715 9.06571 13.7803 9.05208 14.2975C9.03845 14.8147 9.13209 15.3292 9.32709 15.8084C9.52172 16.2868 9.81314 16.7198 10.183 17.0802L14.8657 21.717L14.8662 21.7175C15.1098 21.9587 15.5022 21.9587 15.7457 21.7176L20.3871 17.1217C20.4177 17.0965 20.4465 17.068 20.4727 17.0363L20.4708 17.0348Z" fill="#FF2F01"/>
</svg>
