<svg width="24" height="25" viewBox="0 0 24 25" fill="none" xmlns="http://www.w3.org/2000/svg">
<g id="facebook/2" clip-path="url(#clip0_1207_148482)">
<path id="Vector" d="M2.97794 25H11.9118V16.4062H8.93382V12.5H11.9118V9.375C11.9118 6.78542 13.911 4.6875 16.3787 4.6875H19.3566V8.59375H17.8676C17.0457 8.59375 16.3787 8.5125 16.3787 9.375V12.5H20.1011L18.6121 16.4062H16.3787V25H20.8456C22.4874 25 23.8235 23.5979 23.8235 21.875V3.125C23.8235 1.40104 22.4874 0 20.8456 0H2.97794C1.33511 0 0 1.40104 0 3.125V21.875C0 23.5979 1.33511 25 2.97794 25Z" fill="white"/>
</g>
<defs>
<clipPath id="clip0_1207_148482">
<rect width="23.8235" height="25" fill="white"/>
</clipPath>
</defs>
</svg>
