<svg width="25" height="25" viewBox="0 0 25 25" fill="none" xmlns="http://www.w3.org/2000/svg">
<g id="download/file">
<g id="vector">
<path fill-rule="evenodd" clip-rule="evenodd" d="M14.6581 2.08203C15.1983 2.08203 15.6362 2.5484 15.6362 3.1237V7.29037H19.5486C20.0888 7.29037 20.5267 7.75674 20.5267 8.33203C20.5267 8.90733 20.0888 9.3737 19.5486 9.3737H15.6362C15.1174 9.3737 14.6198 9.1542 14.2529 8.7635C13.8861 8.3728 13.68 7.8429 13.68 7.29037V3.1237C13.68 2.5484 14.1179 2.08203 14.6581 2.08203Z" fill="#9691A4"/>
<path fill-rule="evenodd" clip-rule="evenodd" d="M7.81129 4.16536C7.55188 4.16536 7.30309 4.27511 7.11966 4.47046C6.93623 4.66581 6.83318 4.93076 6.83318 5.20703V19.7904C6.83318 20.0666 6.93623 20.3316 7.11966 20.5269C7.30309 20.7223 7.55188 20.832 7.81129 20.832H17.5924C17.8518 20.832 18.1006 20.7223 18.284 20.5269C18.4675 20.3316 18.5705 20.0666 18.5705 19.7904V8.7635L14.2529 4.16536H7.81129ZM5.7364 2.99732C6.28669 2.41127 7.03305 2.08203 7.81129 2.08203H14.6581C14.9175 2.08203 15.1663 2.19178 15.3497 2.38713L20.2403 7.59546C20.4237 7.79081 20.5267 8.05576 20.5267 8.33203L20.5267 19.7904C20.5267 20.6192 20.2176 21.414 19.6673 22.0001C19.117 22.5861 18.3706 22.9154 17.5924 22.9154H7.81129C7.03305 22.9154 6.28669 22.5861 5.7364 22.0001C5.18611 21.414 4.87695 20.6192 4.87695 19.7904V5.20703C4.87695 4.37823 5.18611 3.58337 5.7364 2.99732Z" fill="#9691A4"/>
<path fill-rule="evenodd" clip-rule="evenodd" d="M12.7018 10.4154C13.242 10.4154 13.68 10.8818 13.68 11.4571V17.7071C13.68 18.2823 13.242 18.7487 12.7018 18.7487C12.1616 18.7487 11.7237 18.2823 11.7237 17.7071V11.4571C11.7237 10.8818 12.1616 10.4154 12.7018 10.4154Z" fill="#9691A4"/>
<path fill-rule="evenodd" clip-rule="evenodd" d="M9.07588 13.8455C9.45786 13.4387 10.0772 13.4387 10.4591 13.8455L12.7018 16.2339L14.9445 13.8455C15.3265 13.4387 15.9458 13.4387 16.3278 13.8455C16.7098 14.2523 16.7098 14.9118 16.3278 15.3186L13.3935 18.4436C13.0115 18.8504 12.3922 18.8504 12.0102 18.4436L9.07588 15.3186C8.69391 14.9118 8.69391 14.2523 9.07588 13.8455Z" fill="#9691A4"/>
</g>
</g>
</svg>
