<svg width="21" height="20" viewBox="0 0 21 20" fill="none" xmlns="http://www.w3.org/2000/svg">
<g id="file">
<g id="vector">
<path fill-rule="evenodd" clip-rule="evenodd" d="M12.1673 1.66602C12.6276 1.66602 13.0007 2.03911 13.0007 2.49935V5.83268H16.334C16.7942 5.83268 17.1673 6.20578 17.1673 6.66602C17.1673 7.12625 16.7942 7.49935 16.334 7.49935H13.0007C12.5586 7.49935 12.1347 7.32375 11.8221 7.01119C11.5096 6.69863 11.334 6.27471 11.334 5.83268V2.49935C11.334 2.03911 11.7071 1.66602 12.1673 1.66602Z" fill="#5C586B"/>
<path fill-rule="evenodd" clip-rule="evenodd" d="M6.33398 3.33268C6.11297 3.33268 5.90101 3.42048 5.74473 3.57676C5.58845 3.73304 5.50065 3.945 5.50065 4.16602V15.8327C5.50065 16.0537 5.58845 16.2657 5.74473 16.4219C5.90101 16.5782 6.11297 16.666 6.33398 16.666H14.6673C14.8883 16.666 15.1003 16.5782 15.2566 16.4219C15.4129 16.2657 15.5007 16.0537 15.5007 15.8327V7.01119L11.8221 3.33268H6.33398ZM4.56622 2.39825C5.03506 1.92941 5.67094 1.66602 6.33398 1.66602H12.1673C12.3883 1.66602 12.6003 1.75381 12.7566 1.91009L16.9232 6.07676C17.0795 6.23304 17.1673 6.445 17.1673 6.66602L17.1673 15.8327C17.1673 16.4957 16.9039 17.1316 16.4351 17.6004C15.9662 18.0693 15.3304 18.3327 14.6673 18.3327H6.33398C5.67094 18.3327 5.03506 18.0693 4.56622 17.6004C4.09738 17.1316 3.83398 16.4957 3.83398 15.8327V4.16602C3.83398 3.50297 4.09738 2.86709 4.56622 2.39825Z" fill="#5C586B"/>
<path fill-rule="evenodd" clip-rule="evenodd" d="M7.16732 7.49935C7.16732 7.03911 7.54042 6.66602 8.00065 6.66602H8.83399C9.29422 6.66602 9.66732 7.03911 9.66732 7.49935C9.66732 7.95959 9.29422 8.33268 8.83399 8.33268H8.00065C7.54042 8.33268 7.16732 7.95959 7.16732 7.49935Z" fill="#5C586B"/>
<path fill-rule="evenodd" clip-rule="evenodd" d="M7.16732 10.8327C7.16732 10.3724 7.54042 9.99933 8.00065 9.99933H13.0007C13.4609 9.99933 13.834 10.3724 13.834 10.8327C13.834 11.2929 13.4609 11.666 13.0007 11.666H8.00065C7.54042 11.666 7.16732 11.2929 7.16732 10.8327Z" fill="#5C586B"/>
<path fill-rule="evenodd" clip-rule="evenodd" d="M7.16732 14.166C7.16732 13.7058 7.54042 13.3327 8.00065 13.3327H13.0007C13.4609 13.3327 13.834 13.7058 13.834 14.166C13.834 14.6263 13.4609 14.9994 13.0007 14.9994H8.00065C7.54042 14.9994 7.16732 14.6263 7.16732 14.166Z" fill="#5C586B"/>
</g>
</g>
</svg>
