<svg width="30" height="30" viewBox="0 0 30 30" fill="none" xmlns="http://www.w3.org/2000/svg">
<g id="checkbox/filled/2">
<g id="vector">
<path fill-rule="evenodd" clip-rule="evenodd" d="M25.8839 6.61614C26.372 7.1043 26.372 7.89575 25.8839 8.38391L15.8839 18.3839C15.6495 18.6183 15.3315 18.75 15 18.75C14.6685 18.75 14.3505 18.6183 14.1161 18.3839L10.3661 14.6339C9.87795 14.1458 9.87795 13.3543 10.3661 12.8661C10.8543 12.378 11.6457 12.378 12.1339 12.8661L15 15.7323L24.1161 6.61614C24.6043 6.12798 25.3957 6.12798 25.8839 6.61614Z" fill="#07C98B"/>
<path fill-rule="evenodd" clip-rule="evenodd" d="M7.5 6.25C7.16848 6.25 6.85054 6.3817 6.61612 6.61612C6.3817 6.85054 6.25 7.16848 6.25 7.5V22.5C6.25 22.8315 6.3817 23.1495 6.61612 23.3839C6.85054 23.6183 7.16848 23.75 7.5 23.75H22.5C22.8315 23.75 23.1495 23.6183 23.3839 23.3839C23.6183 23.1495 23.75 22.8315 23.75 22.5V15C23.75 14.3096 24.3096 13.75 25 13.75C25.6904 13.75 26.25 14.3096 26.25 15V22.5C26.25 23.4946 25.8549 24.4484 25.1516 25.1517C24.4484 25.8549 23.4946 26.25 22.5 26.25H7.5C6.50544 26.25 5.55161 25.8549 4.84835 25.1517C4.14509 24.4484 3.75 23.4946 3.75 22.5V7.5C3.75 6.50544 4.14509 5.55161 4.84835 4.84835C5.55161 4.14509 6.50544 3.75 7.5 3.75H18.75C19.4404 3.75 20 4.30964 20 5C20 5.69036 19.4404 6.25 18.75 6.25H7.5Z" fill="#07C98B"/>
</g>
</g>
</svg>
