<svg width="18" height="19" viewBox="0 0 18 19" fill="none" xmlns="http://www.w3.org/2000/svg">
<g id="icon">
<g id="Vector">
<path fill-rule="evenodd" clip-rule="evenodd" d="M10.5 4.25C10.0858 4.25 9.75001 4.58579 9.75001 5C9.75001 5.41421 10.0858 5.75 10.5 5.75C10.9142 5.75 11.25 5.41421 11.25 5C11.25 4.58579 10.9142 4.25 10.5 4.25ZM8.25001 5C8.25001 3.75736 9.25737 2.75 10.5 2.75C11.7427 2.75 12.75 3.75736 12.75 5C12.75 6.24264 11.7427 7.25 10.5 7.25C9.25737 7.25 8.25001 6.24264 8.25001 5Z" fill="#454056"/>
<path fill-rule="evenodd" clip-rule="evenodd" d="M2.25 4.99997C2.25 4.58576 2.58579 4.24997 3 4.24997H9C9.41421 4.24997 9.75001 4.58579 9.75001 5C9.75001 5.41421 9.41421 5.74997 9 5.74997H3C2.58579 5.74997 2.25 5.41419 2.25 4.99997Z" fill="#454056"/>
<path fill-rule="evenodd" clip-rule="evenodd" d="M11.25 5C11.25 4.58579 11.5858 4.24997 12 4.24997H15C15.4142 4.24997 15.75 4.58576 15.75 4.99997C15.75 5.41419 15.4142 5.74997 15 5.74997H12C11.5858 5.74997 11.25 5.41421 11.25 5Z" fill="#454056"/>
<path fill-rule="evenodd" clip-rule="evenodd" d="M6.00001 8.75C5.5858 8.75 5.25001 9.08579 5.25001 9.5C5.25001 9.91422 5.5858 10.25 6.00001 10.25C6.41423 10.25 6.75001 9.91422 6.75001 9.5C6.75001 9.08579 6.41423 8.75 6.00001 8.75ZM3.75001 9.5C3.75001 8.25736 4.75737 7.25 6.00001 7.25C7.24266 7.25 8.25002 8.25736 8.25002 9.5C8.25002 10.7426 7.24266 11.75 6.00001 11.75C4.75737 11.75 3.75001 10.7426 3.75001 9.5Z" fill="#454056"/>
<path fill-rule="evenodd" clip-rule="evenodd" d="M2.25 9.49997C2.25 9.08576 2.58579 8.74997 3 8.74997H4.5C4.91421 8.74997 5.25001 9.08579 5.25001 9.5C5.25001 9.91422 4.91421 10.25 4.5 10.25H3C2.58579 10.25 2.25 9.91419 2.25 9.49997Z" fill="#454056"/>
<path fill-rule="evenodd" clip-rule="evenodd" d="M6.75001 9.5C6.75001 9.08579 7.08579 8.74997 7.5 8.74997H15C15.4142 8.74997 15.75 9.08576 15.75 9.49997C15.75 9.91419 15.4142 10.25 15 10.25H7.5C7.08579 10.25 6.75001 9.91422 6.75001 9.5Z" fill="#454056"/>
<path fill-rule="evenodd" clip-rule="evenodd" d="M12.75 13.25C12.3358 13.25 12 13.5858 12 14C12 14.4142 12.3358 14.75 12.75 14.75C13.1642 14.75 13.5 14.4142 13.5 14C13.5 13.5858 13.1642 13.25 12.75 13.25ZM10.5 14C10.5 12.7574 11.5074 11.75 12.75 11.75C13.9927 11.75 15 12.7574 15 14C15 15.2426 13.9927 16.25 12.75 16.25C11.5074 16.25 10.5 15.2426 10.5 14Z" fill="#454056"/>
<path fill-rule="evenodd" clip-rule="evenodd" d="M2.25 14C2.25 13.5858 2.58579 13.25 3 13.25H11.25C11.6642 13.25 12 13.5858 12 14C12 14.4142 11.6642 14.75 11.25 14.75H3C2.58579 14.75 2.25 14.4142 2.25 14Z" fill="#454056"/>
<path fill-rule="evenodd" clip-rule="evenodd" d="M13.5 14C13.5 13.5858 13.8358 13.25 14.25 13.25H15C15.4142 13.25 15.75 13.5858 15.75 14C15.75 14.4142 15.4142 14.75 15 14.75H14.25C13.8358 14.75 13.5 14.4142 13.5 14Z" fill="#454056"/>
</g>
</g>
</svg>
