<svg width="16" height="16" viewBox="0 0 16 16" fill="none" xmlns="http://www.w3.org/2000/svg">
<path fill-rule="evenodd" clip-rule="evenodd" d="M15.2807 0.719661C15.5736 1.01255 15.5736 1.48743 15.2807 1.78032L7.03074 10.0303C6.73784 10.3232 6.26297 10.3232 5.97008 10.0303C5.67719 9.73743 5.67719 9.26255 5.97008 8.96966L14.2201 0.719661C14.513 0.426767 14.9878 0.426767 15.2807 0.719661Z" fill="#FF2F01"/>
<path fill-rule="evenodd" clip-rule="evenodd" d="M15.2807 0.719661C15.4864 0.925279 15.5546 1.23122 15.4558 1.50472L10.5808 15.0047C10.5738 15.0243 10.5659 15.0435 10.5572 15.0624C10.4645 15.2648 10.3156 15.4363 10.1283 15.5565C9.94094 15.6767 9.72302 15.7406 9.50042 15.7406C9.27782 15.7406 9.0599 15.6767 8.87256 15.5565C8.6897 15.4392 8.54348 15.273 8.45035 15.0769L5.9414 10.059L0.923512 7.55006C0.727438 7.45694 0.56125 7.31071 0.4439 7.12785C0.323675 6.94051 0.259766 6.72259 0.259766 6.49999C0.259766 6.27739 0.323675 6.05947 0.4439 5.87213C0.564124 5.68479 0.735608 5.53591 0.937971 5.44317C0.956874 5.43451 0.976129 5.42664 0.995686 5.41958L14.4957 0.544575C14.7692 0.445811 15.0751 0.514042 15.2807 0.719661ZM2.27924 6.55088L6.83583 8.82917C6.98098 8.90174 7.09867 9.01944 7.17124 9.16458L9.44954 13.7212L13.5023 2.4981L2.27924 6.55088Z" fill="#FF2F01"/>
</svg>
