<svg width="20" height="19" viewBox="0 0 20 19" fill="none" xmlns="http://www.w3.org/2000/svg">
<path fill-rule="evenodd" clip-rule="evenodd" d="M11.4941 2C11.2289 2 10.9746 2.10536 10.787 2.29289C10.5995 2.48043 10.4941 2.73478 10.4941 3V4C10.4941 5.32608 9.96736 6.59785 9.02967 7.53553C8.33129 8.23392 7.44758 8.70436 6.49414 8.899V14C6.49414 14.5304 6.70485 15.0391 7.07993 15.4142C7.455 15.7893 7.96371 16 8.49414 16H15.4941C15.5224 16 15.5507 16.0012 15.5789 16.0036C15.6657 16.011 15.8171 15.9864 16.0097 15.7939C16.2088 15.5948 16.4051 15.2537 16.517 14.7866L17.4908 9.91786C17.4714 9.68272 17.3693 9.46097 17.2012 9.29289C17.0137 9.10536 16.7594 9 16.4941 9H13.4941C12.9419 9 12.4941 8.55229 12.4941 8V3C12.4941 2.73478 12.3888 2.48043 12.2012 2.29289C12.0137 2.10536 11.7594 2 11.4941 2ZM6.09414 17.2C6.03768 17.2753 5.97566 17.3469 5.90835 17.4142C5.53328 17.7893 5.02457 18 4.49414 18H2.49414C1.96371 18 1.455 17.7893 1.07993 17.4142C0.704854 17.0391 0.494141 16.5304 0.494141 16V9C0.494141 8.46957 0.704854 7.96086 1.07993 7.58579C1.455 7.21072 1.96371 7 2.49414 7H5.49414C6.28979 7 7.05285 6.68393 7.61546 6.12132C8.17807 5.55871 8.49414 4.79565 8.49414 4V3C8.49414 2.20435 8.81021 1.44129 9.37282 0.87868C9.93543 0.316071 10.6985 0 11.4941 0C12.2898 0 13.0529 0.316071 13.6155 0.87868C14.1781 1.44129 14.4941 2.20435 14.4941 3V7H16.4941C17.2898 7 18.0529 7.31607 18.6155 7.87868C19.1781 8.44129 19.4941 9.20435 19.4941 10C19.4941 10.0659 19.4876 10.1315 19.4747 10.1961L18.4747 15.1961C18.4726 15.2069 18.4702 15.2176 18.4677 15.2282C18.2914 15.9805 17.9441 16.6878 17.4239 17.2081C16.9059 17.726 16.2173 18.0492 15.4574 18H8.49414C7.62367 18 6.78245 17.7163 6.09414 17.2ZM4.49414 9H2.49414V16H4.49414V9Z" fill="#9691A4"/>
</svg>
