<svg width="20" height="20" viewBox="0 0 20 20" fill="none" xmlns="http://www.w3.org/2000/svg">
<g id="lock">
<g id="vector">
<path fill-rule="evenodd" clip-rule="evenodd" d="M5.83398 9.99936C5.37375 9.99936 5.00065 10.3725 5.00065 10.8327V15.8327C5.00065 16.2929 5.37375 16.666 5.83398 16.666H14.1673C14.6276 16.666 15.0007 16.2929 15.0007 15.8327V10.8327C15.0007 10.3725 14.6276 9.99936 14.1673 9.99936H5.83398ZM3.33398 10.8327C3.33398 9.45199 4.45327 8.3327 5.83398 8.3327H14.1673C15.548 8.3327 16.6673 9.45199 16.6673 10.8327V15.8327C16.6673 17.2134 15.548 18.3327 14.1673 18.3327H5.83398C4.45327 18.3327 3.33398 17.2134 3.33398 15.8327V10.8327Z" fill="#5C586B"/>
<path fill-rule="evenodd" clip-rule="evenodd" d="M8.33398 13.3327C8.33398 12.4122 9.08018 11.666 10.0007 11.666C10.9211 11.666 11.6673 12.4122 11.6673 13.3327C11.6673 14.2532 10.9211 14.9993 10.0007 14.9993C9.08018 14.9993 8.33398 14.2532 8.33398 13.3327Z" fill="#5C586B"/>
<path fill-rule="evenodd" clip-rule="evenodd" d="M10.0007 3.33268C9.33761 3.33268 8.70172 3.59607 8.23288 4.06492C7.76404 4.53376 7.50065 5.16964 7.50065 5.83268V9.16601C7.50065 9.62625 7.12755 9.99935 6.66732 9.99935C6.20708 9.99935 5.83398 9.62625 5.83398 9.16601V5.83268C5.83398 4.72761 6.27297 3.66781 7.05437 2.8864C7.83577 2.105 8.89558 1.66602 10.0007 1.66602C11.1057 1.66602 12.1655 2.105 12.9469 2.8864C13.7283 3.66781 14.1673 4.72761 14.1673 5.83268V9.16601C14.1673 9.62625 13.7942 9.99935 13.334 9.99935C12.8737 9.99935 12.5007 9.62625 12.5007 9.16601V5.83268C12.5007 5.16964 12.2373 4.53376 11.7684 4.06492C11.2996 3.59607 10.6637 3.33268 10.0007 3.33268Z" fill="#5C586B"/>
</g>
</g>
</svg>
