<svg width="22" height="22" viewBox="0 0 22 22" fill="none" xmlns="http://www.w3.org/2000/svg">
<g id="arrow/long/left">
<g id="vector">
<path fill-rule="evenodd" clip-rule="evenodd" d="M3.66602 11.0013C3.66602 10.495 4.07642 10.0846 4.58268 10.0846H17.416C17.9223 10.0846 18.3327 10.495 18.3327 11.0013C18.3327 11.5076 17.9223 11.918 17.416 11.918H4.58268C4.07642 11.918 3.66602 11.5076 3.66602 11.0013Z" fill="#FF552B"/>
<path fill-rule="evenodd" clip-rule="evenodd" d="M3.9345 10.3531C4.29248 9.99515 4.87288 9.99515 5.23086 10.3531L8.89753 14.0198C9.25551 14.3778 9.25551 14.9582 8.89753 15.3162C8.53955 15.6741 7.95915 15.6741 7.60117 15.3162L3.9345 11.6495C3.57652 11.2915 3.57652 10.7111 3.9345 10.3531Z" fill="#FF552B"/>
<path fill-rule="evenodd" clip-rule="evenodd" d="M8.89753 6.68645C9.25551 7.04443 9.25551 7.62484 8.89753 7.98282L5.23086 11.6495C4.87288 12.0075 4.29248 12.0075 3.9345 11.6495C3.57652 11.2915 3.57652 10.7111 3.9345 10.3531L7.60117 6.68645C7.95915 6.32847 8.53955 6.32847 8.89753 6.68645Z" fill="#FF552B"/>
</g>
</g>
</svg>
