<svg width="32" height="30" viewBox="0 0 32 30" fill="none" xmlns="http://www.w3.org/2000/svg">
<path id="vector" fill-rule="evenodd" clip-rule="evenodd" d="M24.8125 3.33333C25.7175 3.33333 26.5853 3.68452 27.2252 4.30964C27.8651 4.93476 28.2246 5.7826 28.2246 6.66666V24.3096L24.3128 20.4881C23.9929 20.1756 23.5589 20 23.1065 20H7.75204C6.84709 20 5.97921 19.6488 5.33932 19.0237C4.69942 18.3985 4.33994 17.5507 4.33994 16.6666V6.66666C4.33994 5.7826 4.69942 4.93476 5.33932 4.30964C5.97921 3.68452 6.84709 3.33333 7.75204 3.33333H24.8125ZM29.638 1.95262C28.3582 0.702378 26.6224 0 24.8125 0H7.75204C5.94215 0 4.20639 0.702378 2.9266 1.95262C1.64682 3.20286 0.927841 4.89855 0.927841 6.66666V16.6666C0.927841 18.4347 1.64682 20.1304 2.9266 21.3807C4.20639 22.6309 5.94215 23.3333 7.75204 23.3333H22.3998L28.7243 29.5118C29.2122 29.9885 29.946 30.1311 30.5835 29.8731C31.2211 29.6151 31.6367 29.0074 31.6367 28.3333V6.66666C31.6367 4.89855 30.9177 3.20286 29.638 1.95262Z" fill="#FF552B"/>
</svg>
