<svg width="25" height="25" viewBox="0 0 25 25" fill="none" xmlns="http://www.w3.org/2000/svg">
<path fill-rule="evenodd" clip-rule="evenodd" d="M12.5 4.61328C8.08172 4.61328 4.5 8.195 4.5 12.6133C4.5 17.0316 8.08172 20.6133 12.5 20.6133C16.9183 20.6133 20.5 17.0316 20.5 12.6133C20.5 8.195 16.9183 4.61328 12.5 4.61328ZM2.5 12.6133C2.5 7.09043 6.97715 2.61328 12.5 2.61328C18.0228 2.61328 22.5 7.09043 22.5 12.6133C22.5 18.1361 18.0228 22.6133 12.5 22.6133C6.97715 22.6133 2.5 18.1361 2.5 12.6133ZM8.5 12.6133C8.5 12.061 8.94772 11.6133 9.5 11.6133H15.5C16.0523 11.6133 16.5 12.061 16.5 12.6133C16.5 13.1656 16.0523 13.6133 15.5 13.6133H9.5C8.94772 13.6133 8.5 13.1656 8.5 12.6133Z" fill="#FF552B"/>
</svg>
