<svg width="24" height="25" viewBox="0 0 24 25" fill="none" xmlns="http://www.w3.org/2000/svg">
<path d="M15.0186 5.3368V4.9303C15.0186 3.50671 14.0282 2.31083 12.7005 1.99347V0.599976H11.2966V1.99342C9.96884 2.31079 8.97844 3.50667 8.97844 4.9303V5.3368C-0.745756 8.85744 1.52701 23.141 11.9987 23.3421C22.4719 23.1401 24.7415 8.85557 15.0186 5.3368ZM17.7924 15.7882C17.5359 15.8881 17.2647 15.9803 16.981 16.0649C17.0807 14.788 17.0807 13.3845 16.981 12.1076C18.1976 12.4383 19.8786 13.2939 19.8506 14.0863C19.8506 14.6415 19.062 15.2937 17.7924 15.7882ZM13.8734 21.7115C13.4925 21.8052 13.1008 21.8709 12.7005 21.9066V18.1092C13.617 18.0812 14.5071 17.9983 15.346 17.8647C15.165 19.1135 14.5389 21.1522 13.8734 21.7115ZM8.9447 19.2237C8.8315 18.8006 8.73361 18.3444 8.6512 17.8647C9.49009 17.9983 10.3801 18.0812 11.2967 18.1092V21.9066C10.8964 21.871 10.5046 21.8052 10.1237 21.7115C9.69355 21.3118 9.26005 20.402 8.9447 19.2237ZM4.14652 14.0863C4.1198 13.2922 5.79968 12.4387 7.01611 12.1076C6.91643 13.3845 6.91643 14.788 7.01611 16.0649C5.79645 15.7319 4.1221 14.8824 4.14652 14.0863ZM8.34498 14.0863C8.34498 13.2959 8.38349 12.5137 8.45677 11.7644C9.33983 11.6009 10.2988 11.5001 11.2966 11.4678V16.7047C10.2988 16.6725 9.33983 16.5717 8.45677 16.4081C8.38354 15.6588 8.34498 14.8766 8.34498 14.0863ZM10.1237 6.46104C10.5046 6.36736 10.8963 6.30161 11.2966 6.26596V10.0633C10.3801 10.0914 9.49004 10.1742 8.65115 10.3078C8.83216 9.05903 9.45822 7.02028 10.1237 6.46104ZM13.8734 6.46104C14.5393 7.02122 15.1646 9.05819 15.346 10.3078C14.5071 10.1742 13.617 10.0914 12.7005 10.0633V6.26596C13.1008 6.30161 13.4925 6.36736 13.8734 6.46104ZM12.7005 16.7047V11.4678C13.6983 11.5001 14.6573 11.6009 15.5403 11.7644C15.6888 13.259 15.6888 14.9136 15.5403 16.4081C14.6573 16.5717 13.6983 16.6725 12.7005 16.7047ZM19.4549 11.6246C18.6677 11.1673 17.7526 10.8452 16.8162 10.6074C16.6339 9.40872 16.4268 8.44443 16.0001 7.33297C17.6135 8.29263 18.8555 9.8135 19.4549 11.6246ZM10.3823 4.9303C10.3823 4.0391 11.1074 3.31406 11.9986 3.31406C12.905 3.3127 13.6377 4.06652 13.6148 4.9719C12.5704 4.78392 11.4268 4.78392 10.3823 4.9719V4.9303ZM7.99701 7.33301C7.57043 8.44429 7.36323 9.40896 7.18092 10.6074C6.24502 10.845 5.32897 11.1675 4.54222 11.6246C5.14166 9.8135 6.38363 8.29263 7.99701 7.33301ZM4.54217 16.5479C5.3294 17.0053 6.24451 17.3273 7.18087 17.5651C7.36323 18.7638 7.57034 19.7281 7.99697 20.8395C6.38363 19.8799 5.14166 18.359 4.54217 16.5479ZM16.0001 20.8396C16.4267 19.7283 16.6339 18.7636 16.8162 17.5651C17.7521 17.3275 18.6681 17.0051 19.4549 16.5479C18.8555 18.359 17.6135 19.8799 16.0001 20.8396Z" fill="#5D3CF2"/>
<path d="M20.2432 21.8209L21.2358 20.8284L23.8142 23.4068L22.8217 24.3993L20.2432 21.8209Z" fill="#5D3CF2"/>
<path d="M0.178128 1.75196L1.17064 0.759443L3.74909 3.33789L2.75658 4.33041L0.178128 1.75196Z" fill="#5D3CF2"/>
<path d="M20.2454 3.33968L22.8238 0.76127L23.8163 1.75378L21.2379 4.3322L20.2454 3.33968Z" fill="#5D3CF2"/>
<path d="M0.175781 23.4046L2.75423 20.8262L3.74674 21.8187L1.16829 24.3972L0.175781 23.4046Z" fill="#5D3CF2"/>
</svg>
