<svg width="14" height="14" viewBox="0 0 14 14" fill="none" xmlns="http://www.w3.org/2000/svg">
<path d="M13.4215 7.93883C13.2834 7.90431 13.1453 7.93883 13.0244 8.02515C12.5756 8.40493 12.0577 8.71566 11.4881 8.92281C10.9529 9.12996 10.366 9.23354 9.74452 9.23354C8.34624 9.23354 7.06879 8.66387 6.15386 7.74894C5.23894 6.83402 4.66927 5.55657 4.66927 4.15829C4.66927 3.57135 4.77284 3.00168 4.94547 2.4838C5.13536 1.93139 5.41157 1.43077 5.77408 0.999202C5.92945 0.809311 5.89492 0.533107 5.70503 0.377742C5.58419 0.291429 5.44609 0.256903 5.30799 0.291429C3.84065 0.688472 2.56321 1.56887 1.64828 2.74274C0.767883 3.89935 0.25 5.33216 0.25 6.8858C0.25 8.76745 1.00956 10.4765 2.25248 11.7194C3.4954 12.9623 5.18715 13.7219 7.08605 13.7219C8.67423 13.7219 10.1416 13.1695 11.3154 12.2545C12.5066 11.3223 13.3697 9.9931 13.7322 8.47398C13.8013 8.2323 13.6632 7.99062 13.4215 7.93883Z" fill="white"/>
</svg>
