<svg width="21" height="20" viewBox="0 0 21 20" fill="none" xmlns="http://www.w3.org/2000/svg">
<g clip-path="url(#clip0_1207_142167)">
<path d="M11.4986 4.85156H7.92285V15.1461H9.09473V11.8828H11.4986C13.404 11.8828 14.9541 10.3327 14.9541 8.42734V8.30695C14.9541 6.40168 13.404 4.85156 11.4986 4.85156ZM13.7822 8.42738C13.7822 9.68652 12.7578 10.7109 11.4986 10.7109H9.09473V6.02344H11.4986C12.7578 6.02344 13.7822 7.04785 13.7822 8.30699V8.42738Z" fill="#5C586B"/>
<path d="M17.5721 2.92891C15.6833 1.04016 13.1721 0 10.501 0C7.82988 0 5.31867 1.04016 3.42988 2.92891C1.54117 4.8177 0.500977 7.32895 0.500977 10C0.500977 12.6711 1.54117 15.1823 3.42992 17.0711C5.31867 18.9598 7.82988 20 10.501 20C13.1721 20 15.6833 18.9598 17.5721 17.0711C19.4608 15.1823 20.501 12.6711 20.501 10C20.501 7.32895 19.4608 4.8177 17.5721 2.92891ZM16.7434 16.2425C15.076 17.9098 12.859 18.8281 10.501 18.8281C8.14289 18.8281 5.92598 17.9098 4.25855 16.2424C2.59113 14.575 1.67285 12.358 1.67285 10C1.67285 7.64195 2.59113 5.425 4.25855 3.75754C5.92598 2.09016 8.14289 1.17188 10.501 1.17188C12.859 1.17188 15.076 2.09016 16.7434 3.75754C18.4108 5.425 19.3291 7.64195 19.3291 10C19.3291 12.358 18.4108 14.575 16.7434 16.2425Z" fill="#5C586B"/>
</g>
<defs>
<clipPath id="clip0_1207_142167">
<rect width="20" height="20" fill="white" transform="translate(0.500977)"/>
</clipPath>
</defs>
</svg>
