<svg width="24" height="24" viewBox="0 0 24 24" fill="none" xmlns="http://www.w3.org/2000/svg">
<path d="M15.7245 13.016L14.3226 14.418L12.5783 12.6737L13.8726 11.3795C14.563 11.8514 15.378 12.1058 16.2325 12.1058C17.3528 12.1058 18.4061 11.6695 19.1983 10.8773L23.8996 6.17601L22.7915 5.06787L19.1344 8.72488L18.6347 8.22513L22.2917 4.56811L21.1836 3.45997L17.5266 7.11699L17.0268 6.61724L20.6839 2.96022L19.5757 1.85208L15.9187 5.5091L15.4189 5.00934L19.076 1.35233L17.968 0.244324L13.2666 4.94571C11.9711 6.24118 11.703 8.1799 12.46 9.74294L7.99521 5.27812C6.27226 3.55517 3.80473 2.73979 1.39433 3.09698C0.824342 3.18149 0.357871 3.57386 0.177094 4.12103C-0.00368409 4.66815 0.137117 5.26124 0.544599 5.66863L8.95595 14.08L8.59723 14.4387L7.19526 13.0367L0.998565 19.2334C-0.0799185 20.312 -0.0799185 22.0668 0.998565 23.1453C1.52105 23.6678 2.21571 23.9555 2.95454 23.9555C3.6934 23.9555 4.38807 23.6678 4.91046 23.1453L11.1072 16.9486L9.70523 15.5467L11.4701 13.7818L13.2144 15.526L11.8125 16.9279L18.0092 23.1246C18.5317 23.6471 19.2263 23.9349 19.9652 23.9349C20.704 23.9349 21.3987 23.6471 21.9211 23.1247C22.9996 22.0461 22.9996 20.2913 21.9211 19.2127L15.7245 13.016ZM14.3126 6.11916L18.0249 9.83145C17.5367 10.2879 16.904 10.5388 16.2325 10.5388C15.5307 10.5388 14.8709 10.2654 14.3747 9.76925C13.3718 8.76626 13.3515 7.14786 14.3126 6.11916ZM3.80241 22.0373C3.57594 22.2637 3.27486 22.3885 2.95463 22.3885C2.6344 22.3885 2.33327 22.2637 2.1068 22.0373H2.10675C1.63926 21.5697 1.63926 20.8091 2.10675 20.3416L7.19535 15.253L8.8911 16.9487L3.80241 22.0373ZM10.0641 12.9718L1.7253 4.63305C3.61475 4.38557 5.53753 5.03663 6.88707 6.38626L11.7684 11.2675L10.0641 12.9718ZM20.8131 22.0166C20.5866 22.2431 20.2855 22.3678 19.9652 22.3678C19.6449 22.3678 19.3438 22.2431 19.1174 22.0166L14.0288 16.928L15.7246 15.2323L20.8132 20.3209C21.2806 20.7884 21.2806 21.549 20.8131 22.0166Z" fill="#FF2F01"/>
</svg>
