<svg width="20" height="20" viewBox="0 0 20 20" fill="none" xmlns="http://www.w3.org/2000/svg">
<g id="rotate/right">
<g id="Vector">
<path fill-rule="evenodd" clip-rule="evenodd" d="M12.2965 4.60972C10.8667 4.00086 9.25361 3.98493 7.81207 4.56541C7.38515 4.73733 6.89969 4.5306 6.72778 4.10368C6.55586 3.67675 6.76259 3.1913 7.18951 3.01938C9.04108 2.27379 11.113 2.29426 12.9495 3.0763C14.7859 3.85834 16.2365 5.33788 16.9821 7.18945C17.7277 9.04102 17.7073 11.1129 16.9252 12.9494C16.4425 14.083 15.694 15.0696 14.7563 15.8341H16.6675C17.1277 15.8341 17.5008 16.2072 17.5008 16.6674C17.5008 17.1276 17.1277 17.5007 16.6675 17.5007H12.5008C12.0406 17.5007 11.6675 17.1276 11.6675 16.6674V16.2285C11.6672 16.2157 11.6672 16.2029 11.6675 16.1902V12.5007C11.6675 12.0405 12.0406 11.6674 12.5008 11.6674C12.961 11.6674 13.3341 12.0405 13.3341 12.5007V14.8197C14.2375 14.1948 14.9546 13.3231 15.3918 12.2964C16.0007 10.8666 16.0166 9.25355 15.4361 7.81201C14.8556 6.37047 13.7263 5.21858 12.2965 4.60972Z" fill="#5C586B"/>
<path fill-rule="evenodd" clip-rule="evenodd" d="M4.69246 5.13405C5.1527 5.13405 5.5258 5.50715 5.5258 5.96738V5.97572C5.5258 6.43596 5.1527 6.80905 4.69246 6.80905C4.23223 6.80905 3.85913 6.43596 3.85913 5.97572V5.96738C3.85913 5.50715 4.23223 5.13405 4.69246 5.13405Z" fill="#5C586B"/>
<path fill-rule="evenodd" clip-rule="evenodd" d="M3.38411 8.33404C3.84435 8.33404 4.21745 8.70713 4.21745 9.16737V9.1757C4.21745 9.63594 3.84435 10.009 3.38411 10.009C2.92388 10.009 2.55078 9.63594 2.55078 9.1757V9.16737C2.55078 8.70713 2.92388 8.33404 3.38411 8.33404Z" fill="#5C586B"/>
<path fill-rule="evenodd" clip-rule="evenodd" d="M3.85914 11.7507C4.31938 11.7507 4.69248 12.1238 4.69248 12.5841V12.5924C4.69248 13.0526 4.31938 13.4257 3.85914 13.4257C3.39891 13.4257 3.02581 13.0526 3.02581 12.5924V12.5841C3.02581 12.1238 3.39891 11.7507 3.85914 11.7507Z" fill="#5C586B"/>
<path fill-rule="evenodd" clip-rule="evenodd" d="M5.96744 14.4758C6.42768 14.4758 6.80078 14.8489 6.80078 15.3091V15.3174C6.80078 15.7777 6.42768 16.1508 5.96744 16.1508C5.5072 16.1508 5.13411 15.7777 5.13411 15.3174V15.3091C5.13411 14.8489 5.5072 14.4758 5.96744 14.4758Z" fill="#5C586B"/>
<path fill-rule="evenodd" clip-rule="evenodd" d="M9.16747 15.7841C9.62771 15.7841 10.0008 16.1572 10.0008 16.6174V16.6257C10.0008 17.086 9.62771 17.4591 9.16747 17.4591C8.70724 17.4591 8.33414 17.086 8.33414 16.6257V16.6174C8.33414 16.1572 8.70724 15.7841 9.16747 15.7841Z" fill="#5C586B"/>
</g>
</g>
</svg>
