<svg width="18" height="19" viewBox="0 0 18 19" fill="none" xmlns="http://www.w3.org/2000/svg">
<g id="icon-park-solid:doc-search-two">
<mask id="mask0_1207_147245" style="mask-type:alpha" maskUnits="userSpaceOnUse" x="2" y="0" width="14" height="18">
<g id="svgIDa">
<g id="Group">
<path id="Vector" d="M15 10.1641V2.28906C15 2.09015 14.921 1.89938 14.7803 1.75873C14.6397 1.61808 14.4489 1.53906 14.25 1.53906H3.75C3.55109 1.53906 3.36032 1.61808 3.21967 1.75873C3.07902 1.89938 3 2.09015 3 2.28906V15.7891C3 15.988 3.07902 16.1787 3.21967 16.3194C3.36032 16.46 3.55109 16.5391 3.75 16.5391H7.875M6.375 4.53906H11.625M6.375 7.53906H11.625M6.375 10.5391H8.625" stroke="#FF552B" stroke-width="1.5" stroke-linecap="round" stroke-linejoin="round"/>
<path id="Vector_2" d="M13.875 13.9145C13.875 14.432 13.665 14.9007 13.3256 15.2401C13.0188 15.5468 12.6152 15.7376 12.1835 15.7801C11.7518 15.8225 11.3187 15.714 10.958 15.4729C10.5974 15.2318 10.3315 14.8732 10.2056 14.458C10.0798 14.0429 10.1018 13.597 10.2679 13.1962C10.4339 12.7955 10.7338 12.4647 11.1164 12.2603C11.4991 12.0559 11.9407 11.9905 12.3662 12.0752C12.7916 12.1599 13.1745 12.3895 13.4496 12.7249C13.7248 13.0603 13.8751 13.4807 13.875 13.9145Z" fill="white"/>
<path id="Vector_3" d="M14.6251 16.5402L13.3257 15.2409M13.3257 15.2409C13.5034 15.0676 13.6449 14.8607 13.7421 14.6323C13.8392 14.4039 13.8901 14.1584 13.8916 13.9102C13.8932 13.662 13.8454 13.4159 13.7512 13.1863C13.6569 12.9566 13.5179 12.748 13.3424 12.5725C13.1669 12.397 12.9582 12.2581 12.7286 12.1638C12.4989 12.0696 12.2529 12.0219 12.0047 12.0235C11.7564 12.0251 11.511 12.0759 11.2826 12.1731C11.0542 12.2703 10.8473 12.4119 10.6741 12.5896C10.325 12.9418 10.1297 13.4179 10.1309 13.9138C10.132 14.4097 10.3295 14.8849 10.6802 15.2354C11.0309 15.586 11.5062 15.7834 12.002 15.7844C12.4979 15.7854 12.9739 15.59 13.3261 15.2409H13.3257Z" stroke="#FF552B" stroke-width="1.5" stroke-linecap="round" stroke-linejoin="round"/>
</g>
</g>
</mask>
<g mask="url(#mask0_1207_147245)">
<path id="Vector_4" d="M0 0.0390625H18V18.0391H0V0.0390625Z" fill="#FF552B"/>
</g>
</g>
</svg>
