<svg width="21" height="20" viewBox="0 0 21 20" fill="none" xmlns="http://www.w3.org/2000/svg">
<path d="M10.3956 6.66797C8.63147 6.66797 7.18812 8.16797 7.18812 10.0013C7.18812 11.8346 8.63147 13.3346 10.3956 13.3346C12.1597 13.3346 13.603 11.8346 13.603 10.0013C13.603 8.16797 12.1597 6.66797 10.3956 6.66797ZM10.3956 11.668C9.51352 11.668 8.79185 10.918 8.79185 10.0013C8.79185 9.08464 9.51352 8.33464 10.3956 8.33464C11.2776 8.33464 11.9993 9.08464 11.9993 10.0013C11.9993 10.918 11.2776 11.668 10.3956 11.668ZM10.3956 6.66797C8.63147 6.66797 7.18812 8.16797 7.18812 10.0013C7.18812 11.8346 8.63147 13.3346 10.3956 13.3346C12.1597 13.3346 13.603 11.8346 13.603 10.0013C13.603 8.16797 12.1597 6.66797 10.3956 6.66797ZM10.3956 11.668C9.51352 11.668 8.79185 10.918 8.79185 10.0013C8.79185 9.08464 9.51352 8.33464 10.3956 8.33464C11.2776 8.33464 11.9993 9.08464 11.9993 10.0013C11.9993 10.918 11.2776 11.668 10.3956 11.668ZM10.3956 6.66797C8.63147 6.66797 7.18812 8.16797 7.18812 10.0013C7.18812 11.8346 8.63147 13.3346 10.3956 13.3346C12.1597 13.3346 13.603 11.8346 13.603 10.0013C13.603 8.16797 12.1597 6.66797 10.3956 6.66797ZM10.3956 11.668C9.51352 11.668 8.79185 10.918 8.79185 10.0013C8.79185 9.08464 9.51352 8.33464 10.3956 8.33464C11.2776 8.33464 11.9993 9.08464 11.9993 10.0013C11.9993 10.918 11.2776 11.668 10.3956 11.668ZM10.3956 6.66797C8.63147 6.66797 7.18812 8.16797 7.18812 10.0013C7.18812 11.8346 8.63147 13.3346 10.3956 13.3346C12.1597 13.3346 13.603 11.8346 13.603 10.0013C13.603 8.16797 12.1597 6.66797 10.3956 6.66797ZM10.3956 11.668C9.51352 11.668 8.79185 10.918 8.79185 10.0013C8.79185 9.08464 9.51352 8.33464 10.3956 8.33464C11.2776 8.33464 11.9993 9.08464 11.9993 10.0013C11.9993 10.918 11.2776 11.668 10.3956 11.668ZM16.7303 7.7513C16.6501 7.7513 16.5699 7.66797 16.4897 7.66797C16.4095 7.58464 16.3293 7.5013 16.3293 7.41797C16.3293 7.33464 16.2492 7.2513 16.3293 7.16797C16.3293 7.08464 16.3293 7.0013 16.4095 6.91797C16.9708 6.0013 16.8105 4.91797 16.0888 4.16797C15.3671 3.41797 14.3247 3.2513 13.4426 3.83464C13.3625 3.91797 13.2823 3.91797 13.2021 3.91797C13.1219 3.91797 13.0417 3.91797 12.9615 3.91797C12.8813 3.91797 12.8012 3.83464 12.721 3.7513C12.6408 3.66797 12.6408 3.58464 12.6408 3.5013C12.2399 2.33464 11.438 1.66797 10.3956 1.66797C9.35315 1.66797 8.55129 2.33464 8.23054 3.41797C8.23054 3.58464 8.07017 3.7513 7.9098 3.83464C7.74943 3.91797 7.50887 3.91797 7.3485 3.83464C6.54663 3.2513 5.42403 3.33464 4.70235 4.08464C3.98068 4.83464 3.90049 6.0013 4.38161 6.91797C4.46179 7.0013 4.46179 7.08464 4.46179 7.16797C4.46179 7.2513 4.46179 7.33464 4.46179 7.41797C4.46179 7.5013 4.38161 7.58464 4.30142 7.66797C4.22124 7.7513 4.14105 7.7513 4.06086 7.7513C3.01844 8.08464 2.37695 8.91797 2.37695 10.0013C2.37695 11.0846 3.01844 11.918 4.06086 12.2513C4.14105 12.2513 4.22124 12.3346 4.30142 12.3346C4.38161 12.418 4.46179 12.5013 4.46179 12.5846C4.46179 12.668 4.54198 12.7513 4.46179 12.8346C4.46179 12.918 4.46179 13.0013 4.38161 13.0846C3.8203 14.0013 3.98068 15.0846 4.70235 15.8346C5.42403 16.5846 6.46645 16.7513 7.3485 16.168C7.42868 16.0846 7.50887 16.0846 7.58905 16.0846C7.66924 16.0846 7.74943 16.0846 7.82961 16.0846C7.9098 16.0846 7.98998 16.168 8.07017 16.2513C8.15036 16.3346 8.15036 16.418 8.15036 16.5013C8.55129 17.668 9.35315 18.3346 10.3956 18.3346C11.438 18.3346 12.2399 17.668 12.5606 16.5846C12.5606 16.5013 12.6408 16.418 12.6408 16.3346C12.721 16.2513 12.8012 16.168 12.8813 16.168C12.9615 16.168 13.0417 16.0846 13.1219 16.168C13.2021 16.168 13.2823 16.168 13.3625 16.2513C14.2445 16.8346 15.2869 16.668 16.0086 15.918C16.7303 15.168 16.8906 14.0846 16.3293 13.168C16.2492 13.0846 16.2492 13.0013 16.2492 12.918C16.2492 12.8346 16.2492 12.7513 16.2492 12.668C16.2492 12.5846 16.3293 12.5013 16.4095 12.418C16.4897 12.3346 16.5699 12.3346 16.6501 12.3346C17.6123 12.0846 18.334 11.168 18.334 10.0846C18.334 9.0013 17.7727 8.08464 16.7303 7.7513ZM16.4095 10.5846C16.0888 10.668 15.768 10.8346 15.5275 11.0846C15.2869 11.3346 15.0464 11.5846 14.886 11.918C14.7256 12.2513 14.7256 12.5846 14.7256 12.918C14.7256 13.2513 14.886 13.5846 15.0464 13.918C15.2869 14.2513 15.0464 14.5846 14.9662 14.668C14.886 14.7513 14.6454 15.0013 14.2445 14.7513C13.9238 14.5846 13.603 14.418 13.2823 14.418C12.9615 14.418 12.5606 14.418 12.2399 14.5846C11.9191 14.7513 11.6785 14.918 11.438 15.2513C11.1974 15.5013 11.0371 15.8346 10.9569 16.168C10.8767 16.668 10.4758 16.668 10.3956 16.668C10.3154 16.668 9.91445 16.668 9.83427 16.2513C9.75408 15.918 9.59371 15.5846 9.35315 15.3346C9.11259 15.0846 8.87203 14.8346 8.55129 14.668C8.31073 14.5846 7.98998 14.5013 7.74943 14.5013C7.66924 14.5013 7.66924 14.5013 7.58905 14.5013C7.26831 14.5013 6.94756 14.668 6.62682 14.8346C6.30608 15.0846 5.98533 14.8346 5.90514 14.7513C5.82496 14.668 5.5844 14.418 5.82496 14.0013C5.98533 13.668 6.1457 13.3346 6.1457 13.0013C6.1457 12.668 6.1457 12.2513 5.98533 12.0013C5.82496 11.668 5.66459 11.3346 5.34384 11.168C5.10328 10.8346 4.78254 10.668 4.38161 10.5846C3.98068 10.5013 3.98068 10.0846 3.98068 10.0013C3.98068 9.91797 3.98068 9.5013 4.38161 9.41797C4.78254 9.33464 5.10328 9.16797 5.34384 8.91797C5.5844 8.66797 5.82496 8.41797 5.98533 8.08464C6.1457 7.7513 6.1457 7.41797 6.1457 7.08464C6.1457 6.7513 5.98533 6.41797 5.82496 6.08464C5.5844 5.66797 5.74477 5.33464 5.82496 5.2513C5.90514 5.16797 6.22589 5.0013 6.54663 5.16797C7.18812 5.58464 7.9098 5.66797 8.55129 5.33464C9.19278 5.08464 9.67389 4.5013 9.83427 3.7513C9.91445 3.33464 10.3154 3.33464 10.3956 3.33464C10.4758 3.33464 10.8767 3.33464 10.9569 3.7513C11.0371 4.16797 11.1974 4.5013 11.438 4.7513C11.6785 5.0013 11.9191 5.2513 12.2399 5.41797C12.5606 5.58464 12.8813 5.58464 13.2021 5.58464C13.5228 5.58464 13.8436 5.41797 14.1643 5.2513C14.4851 5.0013 14.8058 5.2513 14.886 5.33464C14.9662 5.41797 15.2067 5.66797 14.9662 6.08464C14.8058 6.41797 14.6454 6.7513 14.6454 7.08464C14.6454 7.41797 14.6454 7.83464 14.8058 8.08464C14.9662 8.41797 15.1266 8.7513 15.4473 8.91797C15.6879 9.16797 16.0086 9.33464 16.3293 9.41797C16.8105 9.5013 16.8105 9.91797 16.8105 10.0013C16.8105 10.0846 16.8105 10.5013 16.4095 10.5846ZM10.3956 6.66797C8.63147 6.66797 7.18812 8.16797 7.18812 10.0013C7.18812 11.8346 8.63147 13.3346 10.3956 13.3346C12.1597 13.3346 13.603 11.8346 13.603 10.0013C13.603 8.16797 12.1597 6.66797 10.3956 6.66797ZM10.3956 11.668C9.51352 11.668 8.79185 10.918 8.79185 10.0013C8.79185 9.08464 9.51352 8.33464 10.3956 8.33464C11.2776 8.33464 11.9993 9.08464 11.9993 10.0013C11.9993 10.918 11.2776 11.668 10.3956 11.668ZM10.3956 6.66797C8.63147 6.66797 7.18812 8.16797 7.18812 10.0013C7.18812 11.8346 8.63147 13.3346 10.3956 13.3346C12.1597 13.3346 13.603 11.8346 13.603 10.0013C13.603 8.16797 12.1597 6.66797 10.3956 6.66797ZM10.3956 11.668C9.51352 11.668 8.79185 10.918 8.79185 10.0013C8.79185 9.08464 9.51352 8.33464 10.3956 8.33464C11.2776 8.33464 11.9993 9.08464 11.9993 10.0013C11.9993 10.918 11.2776 11.668 10.3956 11.668ZM10.3956 6.66797C8.63147 6.66797 7.18812 8.16797 7.18812 10.0013C7.18812 11.8346 8.63147 13.3346 10.3956 13.3346C12.1597 13.3346 13.603 11.8346 13.603 10.0013C13.603 8.16797 12.1597 6.66797 10.3956 6.66797ZM10.3956 11.668C9.51352 11.668 8.79185 10.918 8.79185 10.0013C8.79185 9.08464 9.51352 8.33464 10.3956 8.33464C11.2776 8.33464 11.9993 9.08464 11.9993 10.0013C11.9993 10.918 11.2776 11.668 10.3956 11.668Z" fill="white"/>
</svg>
