<svg width="25" height="24" viewBox="0 0 25 24" fill="none" xmlns="http://www.w3.org/2000/svg">
<g id="cross/square">
<g id="vector">
<path fill-rule="evenodd" clip-rule="evenodd" d="M6.5 5C5.94772 5 5.5 5.44772 5.5 6V18C5.5 18.5523 5.94772 19 6.5 19H18.5C19.0523 19 19.5 18.5523 19.5 18V6C19.5 5.44772 19.0523 5 18.5 5H6.5ZM3.5 6C3.5 4.34315 4.84315 3 6.5 3H18.5C20.1569 3 21.5 4.34315 21.5 6V18C21.5 19.6569 20.1569 21 18.5 21H6.5C4.84315 21 3.5 19.6569 3.5 18V6Z" fill="#D02F07"/>
<path fill-rule="evenodd" clip-rule="evenodd" d="M9.79289 9.29289C10.1834 8.90237 10.8166 8.90237 11.2071 9.29289L12.5 10.5858L13.7929 9.29289C14.1834 8.90237 14.8166 8.90237 15.2071 9.29289C15.5976 9.68342 15.5976 10.3166 15.2071 10.7071L13.9142 12L15.2071 13.2929C15.5976 13.6834 15.5976 14.3166 15.2071 14.7071C14.8166 15.0976 14.1834 15.0976 13.7929 14.7071L12.5 13.4142L11.2071 14.7071C10.8166 15.0976 10.1834 15.0976 9.79289 14.7071C9.40237 14.3166 9.40237 13.6834 9.79289 13.2929L11.0858 12L9.79289 10.7071C9.40237 10.3166 9.40237 9.68342 9.79289 9.29289Z" fill="#D02F07"/>
</g>
</g>
</svg>
