<svg width="18" height="17" viewBox="0 0 18 17" fill="none" xmlns="http://www.w3.org/2000/svg">
<path fill-rule="evenodd" clip-rule="evenodd" d="M8.99538 0.751709C9.28087 0.751709 9.54159 0.913785 9.66794 1.16979L11.8079 5.50579L16.5925 6.19921C16.8751 6.24018 17.11 6.43815 17.1982 6.70981C17.2864 6.98147 17.2127 7.27966 17.008 7.47889L13.5408 10.8539L14.3583 15.6197C14.4066 15.9012 14.2908 16.1857 14.0597 16.3534C13.8285 16.5212 13.5222 16.5431 13.2695 16.41L9.00024 14.1603L4.72065 16.4103C4.46796 16.5432 4.16176 16.521 3.93079 16.3532C3.69983 16.1854 3.58416 15.901 3.63243 15.6197L4.44996 10.8539L0.982747 7.47889C0.778075 7.27966 0.704332 6.98147 0.792551 6.70981C0.880771 6.43815 1.11564 6.24018 1.39831 6.19921L6.18291 5.50579L8.32283 1.16979C8.44917 0.913785 8.7099 0.751709 8.99538 0.751709Z" fill="#FDBC31"/>
</svg>
