<svg width="18" height="18" viewBox="0 0 18 18" fill="none" xmlns="http://www.w3.org/2000/svg">
<g id="material-symbols:table-restaurant-outline-rounded">
<path id="Vector" d="M3.26197 6.75H14.7745L14.137 4.5H3.91822L3.26197 6.75ZM5.23072 9.75H12.8057L12.6182 8.25H5.43697L5.23072 9.75ZM3.86197 15C3.63697 15 3.45247 14.9158 3.30847 14.7472C3.16497 14.5782 3.10572 14.3813 3.13072 14.1562L3.93697 8.25H2.26822C2.01822 8.25 1.82147 8.15 1.67797 7.95C1.53397 7.75 1.49322 7.53125 1.55572 7.29375L2.62447 3.54375C2.67447 3.38125 2.76197 3.25 2.88697 3.15C3.01197 3.05 3.16197 3 3.33697 3H14.6995C14.8745 3 15.0245 3.05 15.1495 3.15C15.2745 3.25 15.362 3.38125 15.412 3.54375L16.4807 7.29375C16.5432 7.53125 16.5025 7.75 16.3585 7.95C16.215 8.15 16.0182 8.25 15.7682 8.25H14.1182L14.9057 14.1562C14.9307 14.3813 14.8715 14.5782 14.728 14.7472C14.584 14.9158 14.3995 15 14.1745 15C13.987 15 13.8215 14.9405 13.678 14.8215C13.534 14.703 13.4495 14.55 13.4245 14.3625L13.012 11.25H5.02447L4.61197 14.3625C4.58697 14.55 4.50247 14.703 4.35847 14.8215C4.21497 14.9405 4.04947 15 3.86197 15Z" fill="black"/>
</g>
</svg>
