<svg width="27" height="26" viewBox="0 0 27 26" fill="none" xmlns="http://www.w3.org/2000/svg">
<path d="M25.4812 9.29626L17.033 0.848043C16.3301 0.14514 15.2295 0.14578 14.5272 0.848043L1.34817 14.027C1.00236 14.3729 0.810009 14.8478 0.820739 15.3295C0.830829 15.7964 1.022 16.2271 1.35949 16.5444L3.15886 18.3437C3.47052 18.656 3.96355 18.6922 4.31768 18.4304C5.35094 17.6673 6.78904 17.7667 7.66317 18.6628C8.55867 19.5803 8.66764 21.0217 7.91636 22.0157C7.64831 22.3705 7.68276 22.8679 7.99708 23.1822L9.80771 24.9929C10.1446 25.3295 10.6035 25.521 11.0725 25.521C11.0849 25.521 11.0977 25.5207 11.1102 25.5204C11.5771 25.5103 12.0078 25.3194 12.325 24.9816L25.4925 11.8133C25.8383 11.4678 26.0303 10.9932 26.0199 10.5111C26.0098 10.0442 25.819 9.61358 25.4812 9.29626ZM15.7982 2.09797C15.7941 2.10033 15.7872 2.10151 15.7816 2.1027L15.1571 1.4782L15.7982 2.09797ZM11.0609 23.7273L9.7516 22.418C10.5503 20.7988 10.2532 18.767 8.93771 17.4188C7.62665 16.0766 5.58479 15.7727 3.92555 16.5919L2.6139 15.2805L15.7804 2.11431L24.2271 10.561L11.0609 23.7273Z" fill="#F23C49"/>
<path d="M12.6435 3.8795L11.3765 5.13035L13.6617 7.44519L14.9287 6.19435L12.6435 3.8795Z" fill="#F23C49"/>
<path d="M20.1769 11.4403L18.9258 12.7078L21.2413 14.9934L22.4924 13.7259L20.1769 11.4403Z" fill="#F23C49"/>
<path d="M16.4095 7.64495L15.1504 8.90403L17.4654 11.219L18.7245 9.95995L16.4095 7.64495Z" fill="#F23C49"/>
</svg>
