<svg width="20" height="20" viewBox="0 0 20 20" fill="none" xmlns="http://www.w3.org/2000/svg">
<path fill-rule="evenodd" clip-rule="evenodd" d="M10 2C5.58172 2 2 5.58172 2 10C2 14.4183 5.58172 18 10 18C14.4183 18 18 14.4183 18 10C18 5.58172 14.4183 2 10 2ZM0 10C0 4.47715 4.47715 0 10 0C15.5228 0 20 4.47715 20 10C20 15.5228 15.5228 20 10 20C4.47715 20 0 15.5228 0 10Z" fill="#1F1B2D"/>
<path fill-rule="evenodd" clip-rule="evenodd" d="M10 4.00015C10.5523 4.00015 11 4.44786 11 5.00015V9.58593L13.7071 12.293C14.0976 12.6836 14.0976 13.3167 13.7071 13.7073C13.3166 14.0978 12.6834 14.0978 12.2929 13.7073L9.29289 10.7073C9.10536 10.5197 9 10.2654 9 10.0001V5.00015C9 4.44786 9.44771 4.00015 10 4.00015Z" fill="#1F1B2D"/>
</svg>
