<svg width="13" height="13" viewBox="0 0 13 13" fill="none" xmlns="http://www.w3.org/2000/svg">
<path fill-rule="evenodd" clip-rule="evenodd" d="M2.99414 4.49995C2.62595 4.49995 2.32747 4.79843 2.32747 5.16662C2.32747 5.53481 2.62595 5.83328 2.99414 5.83328C3.36233 5.83328 3.66081 5.53481 3.66081 5.16662C3.66081 4.79843 3.36233 4.49995 2.99414 4.49995ZM0.994141 5.16662C0.994141 4.06205 1.88957 3.16662 2.99414 3.16662C4.09871 3.16662 4.99414 4.06205 4.99414 5.16662C4.99414 6.27119 4.09871 7.16662 2.99414 7.16662C1.88957 7.16662 0.994141 6.27119 0.994141 5.16662Z" fill="#5C586B"/>
<path fill-rule="evenodd" clip-rule="evenodd" d="M2.99415 0.5C3.36234 0.5 3.66082 0.798477 3.66082 1.16667V3.83333C3.66082 4.20152 3.36233 4.49995 2.99414 4.49995C2.62595 4.49995 2.32749 4.20152 2.32749 3.83333V1.16667C2.32749 0.798477 2.62596 0.5 2.99415 0.5Z" fill="#5C586B"/>
<path fill-rule="evenodd" clip-rule="evenodd" d="M2.99414 5.83328C3.36233 5.83328 3.66082 6.13179 3.66082 6.49998V11.8333C3.66082 12.2015 3.36234 12.5 2.99415 12.5C2.62596 12.5 2.32749 12.2015 2.32749 11.8333V6.49998C2.32749 6.13179 2.62595 5.83328 2.99414 5.83328Z" fill="#5C586B"/>
<path fill-rule="evenodd" clip-rule="evenodd" d="M6.99414 8.49995C6.62595 8.49995 6.32747 8.79843 6.32747 9.16662C6.32747 9.53481 6.62595 9.83329 6.99414 9.83329C7.36233 9.83329 7.66081 9.53481 7.66081 9.16662C7.66081 8.79843 7.36233 8.49995 6.99414 8.49995ZM4.99414 9.16662C4.99414 8.06205 5.88957 7.16662 6.99414 7.16662C8.09871 7.16662 8.99414 8.06205 8.99414 9.16662C8.99414 10.2712 8.09871 11.1666 6.99414 11.1666C5.88957 11.1666 4.99414 10.2712 4.99414 9.16662Z" fill="#5C586B"/>
<path fill-rule="evenodd" clip-rule="evenodd" d="M6.99415 0.5C7.36234 0.5 7.66082 0.798477 7.66082 1.16667V7.83333C7.66082 8.20152 7.36233 8.49995 6.99414 8.49995C6.62595 8.49995 6.32749 8.20152 6.32749 7.83333V1.16667C6.32749 0.798477 6.62596 0.5 6.99415 0.5Z" fill="#5C586B"/>
<path fill-rule="evenodd" clip-rule="evenodd" d="M6.99414 9.83329C7.36233 9.83329 7.66082 10.1318 7.66082 10.5V11.8333C7.66082 12.2015 7.36234 12.5 6.99415 12.5C6.62596 12.5 6.32749 12.2015 6.32749 11.8333V10.5C6.32749 10.1318 6.62595 9.83329 6.99414 9.83329Z" fill="#5C586B"/>
<path fill-rule="evenodd" clip-rule="evenodd" d="M10.9941 2.49995C10.626 2.49995 10.3275 2.79843 10.3275 3.16662C10.3275 3.53481 10.626 3.83328 10.9941 3.83328C11.3623 3.83328 11.6608 3.53481 11.6608 3.16662C11.6608 2.79843 11.3623 2.49995 10.9941 2.49995ZM8.99414 3.16662C8.99414 2.06205 9.88957 1.16662 10.9941 1.16662C12.0987 1.16662 12.9941 2.06205 12.9941 3.16662C12.9941 4.27119 12.0987 5.16662 10.9941 5.16662C9.88957 5.16662 8.99414 4.27119 8.99414 3.16662Z" fill="#5C586B"/>
<path fill-rule="evenodd" clip-rule="evenodd" d="M10.9942 0.5C11.3623 0.5 11.6608 0.798477 11.6608 1.16667V1.83333C11.6608 2.20152 11.3623 2.49995 10.9941 2.49995C10.626 2.49995 10.3275 2.20152 10.3275 1.83333V1.16667C10.3275 0.798477 10.626 0.5 10.9942 0.5Z" fill="#5C586B"/>
<path fill-rule="evenodd" clip-rule="evenodd" d="M10.9941 3.83328C11.3623 3.83328 11.6608 4.13179 11.6608 4.49998V11.8333C11.6608 12.2015 11.3623 12.5 10.9942 12.5C10.626 12.5 10.3275 12.2015 10.3275 11.8333V4.49998C10.3275 4.13179 10.626 3.83328 10.9941 3.83328Z" fill="#5C586B"/>
</svg>
