<svg width="16" height="12" viewBox="0 0 16 12" fill="none" xmlns="http://www.w3.org/2000/svg">
<path fill-rule="evenodd" clip-rule="evenodd" d="M12.5 0H3.5C1.85 0 0.5 1.35 0.5 3V9C0.5 10.65 1.85 12 3.5 12H12.5C14.15 12 15.5 10.65 15.5 9V3C15.5 1.35 14.15 0 12.5 0ZM2 3C2 2.175 2.675 1.5 3.5 1.5H12.5C13.325 1.5 14 2.175 14 3V3.75H2V3ZM14 9C14 9.825 13.325 10.5 12.5 10.5H3.5C2.675 10.5 2 9.825 2 9V5.25H14V9ZM3.5 8.25C3.5 7.8 3.8 7.5 4.25 7.5C4.7 7.5 5 7.8 5 8.25C5 8.7 4.7 9 4.25 9C3.8 9 3.5 8.7 3.5 8.25ZM6.5 8.25C6.5 7.8 6.8 7.5 7.25 7.5H8.75C9.2 7.5 9.5 7.8 9.5 8.25C9.5 8.7 9.2 9 8.75 9H7.25C6.8 9 6.5 8.7 6.5 8.25Z" fill="#454056"/>
</svg>
