<svg width="35" height="35" viewBox="0 0 35 35" fill="none" xmlns="http://www.w3.org/2000/svg">
<g id="wishlist">
<rect id="shape" width="35" height="35" rx="17.5" fill="white"/>
<path id="vector" d="M23.4455 18.3785L23.4388 18.3865L23.4359 18.39C23.4047 18.427 23.3704 18.4602 23.334 18.4896L17.8108 23.8515C17.5209 24.1329 17.0534 24.1323 16.7635 23.8509L11.1911 18.4413C10.751 18.0208 10.4042 17.5156 10.1726 16.9575C9.94051 16.3984 9.82908 15.7982 9.8453 15.1948C9.86151 14.5913 10.005 13.9977 10.2668 13.4514C10.5285 12.905 10.9029 12.4176 11.3662 12.0201C11.8295 11.6225 12.3718 11.3232 12.9589 11.1411C13.546 10.9591 14.1652 10.8981 14.7775 10.9622C15.3897 11.0262 15.9819 11.2138 16.5166 11.5132C16.7946 11.6688 17.0539 11.8529 17.2905 12.0619C17.5268 11.8554 17.7855 11.6737 18.0625 11.5201C18.5969 11.2239 19.1878 11.0391 19.7984 10.977C20.409 10.915 21.026 10.9772 21.611 11.1597C22.1959 11.3422 22.7361 11.641 23.1978 12.0376C23.6595 12.4342 24.0328 12.9199 24.2942 13.4643C24.5556 14.0088 24.6995 14.6003 24.7169 15.2018C24.7344 15.8033 24.625 16.4019 24.3956 16.96C24.2616 17.286 23.9989 17.6611 23.8135 17.9104C23.7132 18.0453 23.6198 18.1639 23.5516 18.2488C23.5173 18.2914 23.4891 18.3258 23.4691 18.3501L23.4455 18.3785Z" fill="#FF552B"/>
</g>
</svg>
